<?xml version="1.0" encoding="UTF-8"?>
<svg version="1.1" xmlns="http://www.w3.org/2000/svg" width="500" height="500">
<path d="M0 0 C165 0 330 0 500 0 C500 165 500 330 500 500 C335 500 170 500 0 500 C0 335 0 170 0 0 Z " fill="#000000" transform="translate(0,0)"/>
<path d="M0 0 C2.84535552 0.84650099 5.42685578 1.38496207 8.3359375 1.859375 C14.39413398 3.03355509 19.44944439 5.65904482 24.84765625 8.5703125 C25.85691162 9.10712646 26.86616699 9.64394043 27.90600586 10.19702148 C35.97875691 14.57005809 43.37981278 19.41864575 50.59765625 25.0703125 C51.81073472 25.99930307 53.02429101 26.92766998 54.23828125 27.85546875 C63.81161741 35.22483495 72.86487585 42.73524427 80.59765625 52.0703125 C81.21125 52.76125 81.82484375 53.4521875 82.45703125 54.1640625 C86.90167887 59.35541092 90.4637311 64.90516382 93.84765625 70.8203125 C94.25991455 71.5220459 94.67217285 72.2237793 95.09692383 72.94677734 C102.09361322 85.5609669 103.36403898 98.79721741 104.28515625 112.8828125 C104.45765741 115.34666795 104.63432912 117.81013767 104.81562805 120.27336121 C104.92617774 121.7909378 105.03103595 123.30894221 105.12956238 124.8273468 C105.08799691 128.24169974 105.08799691 128.24169974 106.59765625 131.0703125 C106.89439394 132.56722653 107.13564644 134.07524722 107.3515625 135.5859375 C107.54975586 136.96845703 107.54975586 136.96845703 107.75195312 138.37890625 C107.88666016 139.34957031 108.02136719 140.32023438 108.16015625 141.3203125 C108.29873047 142.27550781 108.43730469 143.23070312 108.58007812 144.21484375 C109.19151151 148.54608122 109.67552284 152.68823537 109.59765625 157.0703125 C110.23574219 157.05871094 110.87382812 157.04710937 111.53125 157.03515625 C112.35753906 157.02613281 113.18382812 157.01710937 114.03515625 157.0078125 C114.85886719 156.99621094 115.68257813 156.98460937 116.53125 156.97265625 C118.59765625 157.0703125 118.59765625 157.0703125 119.59765625 158.0703125 C119.63829457 159.73648365 119.64037725 161.40419345 119.59765625 163.0703125 C117.19219987 164.27304069 115.64768672 164.17102722 112.97265625 164.1328125 C112.15539062 164.12378906 111.338125 164.11476562 110.49609375 164.10546875 C109.55636719 164.08806641 109.55636719 164.08806641 108.59765625 164.0703125 C108.64986328 165.16085938 108.64986328 165.16085938 108.703125 166.2734375 C108.99617429 177.15812536 107.45098754 185.65303957 101.41015625 194.8203125 C96.0055244 203.17022079 97.38799961 208.01576752 99.203125 217.45703125 C99.91626886 222.18072672 99.35998865 225.61193748 97.16015625 229.8203125 C94.06198821 232.54065517 91.59778073 233.05270307 87.66015625 234.04296875 C83.07459996 235.58123572 79.00884257 237.99412621 74.86401367 240.46606445 C71.99518402 242.10718204 70.10277858 243.09810465 66.7578125 242.9140625 C63.94310973 241.81464876 63.0584383 240.6997202 61.59765625 238.0703125 C61.23414841 236.40996587 60.89682637 234.74344911 60.59765625 233.0703125 C47.05403933 238.65064766 47.05403933 238.65064766 38.59765625 250.0703125 C38.04078125 251.8028125 38.04078125 251.8028125 37.47265625 253.5703125 C37.18390625 254.3953125 36.89515625 255.2203125 36.59765625 256.0703125 C34.47265625 256.9453125 34.47265625 256.9453125 32.59765625 257.0703125 C32.92765625 257.73804688 33.25765625 258.40578125 33.59765625 259.09375 C34.83707968 262.78297132 34.72016714 265.81324856 34.59765625 269.6953125 C34.2582357 275.24407874 34.2582357 275.24407874 36.59765625 280.0703125 C36.38671441 282.81255639 35.68646464 284.86494311 34.59765625 287.3828125 C31.27153811 290.18922468 27.8303691 289.31568716 23.59765625 289.0703125 C23.59765625 285.7703125 23.59765625 282.4703125 23.59765625 279.0703125 C21.28765625 279.0703125 18.97765625 279.0703125 16.59765625 279.0703125 C15.93765625 282.0403125 15.27765625 285.0103125 14.59765625 288.0703125 C13.27765625 288.4003125 11.95765625 288.7303125 10.59765625 289.0703125 C8.1958594 286.66851565 8.34167538 286.10081243 8.33203125 282.82421875 C8.32945312 281.98697266 8.326875 281.14972656 8.32421875 280.28710938 C8.33195313 279.41119141 8.3396875 278.53527344 8.34765625 277.6328125 C8.33992187 276.76076172 8.3321875 275.88871094 8.32421875 274.99023438 C8.32679688 274.15169922 8.329375 273.31316406 8.33203125 272.44921875 C8.33428711 271.6816626 8.33654297 270.91410645 8.33886719 270.12329102 C8.59765625 268.0703125 8.59765625 268.0703125 10.59765625 265.0703125 C9.71078125 264.7815625 8.82390625 264.4928125 7.91015625 264.1953125 C5.09383201 263.23882502 2.34682469 262.20232304 -0.40234375 261.0703125 C-1.06234375 261.7303125 -1.72234375 262.3903125 -2.40234375 263.0703125 C-6.08515225 262.9619946 -8.03371366 261.60248745 -10.83984375 259.4453125 C-15.86355053 256.06081907 -20.65819978 257.09920115 -26.42578125 257.87109375 C-27.40804687 257.93683594 -28.3903125 258.00257813 -29.40234375 258.0703125 C-30.06234375 257.4103125 -30.72234375 256.7503125 -31.40234375 256.0703125 C-34.08650924 256.2919348 -34.08650924 256.2919348 -37.40234375 257.0703125 C-38.2428125 257.18375 -39.08328125 257.2971875 -39.94921875 257.4140625 C-42.53393408 257.80251683 -44.92722693 258.22723992 -47.40234375 259.0703125 C-49.11744952 261.39689922 -49.11744952 261.39689922 -49.40234375 264.0703125 C-49.73234375 265.0603125 -50.06234375 266.0503125 -50.40234375 267.0703125 C-50.59449865 271.5788746 -50.59449865 271.5788746 -49.90234375 276.0078125 C-49.09379882 279.34306032 -49.34529675 282.6474925 -49.40234375 286.0703125 C-52.53413229 287.63620677 -55.84134621 287.37841697 -59.27734375 287.4453125 C-59.99792969 287.48269531 -60.71851563 287.52007812 -61.4609375 287.55859375 C-65.26982691 287.62172451 -66.98498264 287.46851605 -69.78515625 284.796875 C-70.58566406 283.44722656 -70.58566406 283.44722656 -71.40234375 282.0703125 C-72.00175781 281.11898437 -72.00175781 281.11898437 -72.61328125 280.1484375 C-73.66939414 277.36699168 -73.83410195 274.78335348 -74.02734375 271.8203125 C-74.10210937 270.74265625 -74.176875 269.665 -74.25390625 268.5546875 C-74.32738281 267.32492187 -74.32738281 267.32492187 -74.40234375 266.0703125 C-75.72234375 266.0703125 -77.04234375 266.0703125 -78.40234375 266.0703125 C-78.11359375 266.9365625 -77.82484375 267.8028125 -77.52734375 268.6953125 C-77.15609375 269.8090625 -76.78484375 270.9228125 -76.40234375 272.0703125 C-76.03109375 273.0809375 -75.65984375 274.0915625 -75.27734375 275.1328125 C-74.42924453 277.98000272 -74.14975558 280.12345049 -74.40234375 283.0703125 C-74.73234375 283.4003125 -75.06234375 283.7303125 -75.40234375 284.0703125 C-78.06901042 284.0703125 -80.73567708 284.0703125 -83.40234375 284.0703125 C-83.73234375 284.4003125 -84.06234375 284.7303125 -84.40234375 285.0703125 C-86.0685149 285.11095082 -87.7362247 285.1130335 -89.40234375 285.0703125 C-94.33519921 277.71507266 -95.86722182 272.15242363 -95.58984375 263.4453125 C-94.97451917 253.33524549 -94.97451917 253.33524549 -98.40234375 244.0703125 C-101.79568637 240.92706549 -105.484443 238.5098587 -109.40234375 236.0703125 C-111.0708974 234.92722873 -112.73774996 233.7816551 -114.40234375 232.6328125 C-116.82714682 230.9969619 -118.5974819 230.00526645 -121.40234375 229.0703125 C-121.67046875 229.9571875 -121.93859375 230.8440625 -122.21484375 231.7578125 C-124.26391893 237.47365379 -124.26391893 237.47365379 -126.40234375 240.0703125 C-131.31423719 240.67134587 -133.75695044 239.58990504 -137.71484375 236.7578125 C-141.83384125 233.97470608 -145.39223991 232.25544647 -150.12890625 230.87890625 C-155.65254162 228.91431429 -161.13366855 225.9733253 -164.40234375 221.0703125 C-164.62406032 218.37803991 -164.72688644 215.8231484 -164.71484375 213.1328125 C-164.73095703 212.41673828 -164.74707031 211.70066406 -164.76367188 210.96289062 C-164.76781072 206.49707185 -164.11179508 204.49465863 -161.40234375 201.0703125 C-160.90364974 196.65833729 -161.66153651 193.94676274 -163.71484375 190.0703125 C-167.64266299 181.91339243 -169.66288041 173.13424569 -169.40234375 164.0703125 C-172.70234375 164.0703125 -176.00234375 164.0703125 -179.40234375 164.0703125 C-180.02734375 161.6953125 -180.02734375 161.6953125 -180.40234375 159.0703125 C-177.83688435 156.5048531 -175.92547707 156.52985163 -172.40234375 156.0703125 C-172.85837416 146.55744098 -172.85837416 146.55744098 -174.46484375 137.1953125 C-175.39994363 132.83630843 -175.72312591 128.51804018 -175.83984375 124.0703125 C-175.87980469 122.7915625 -175.91976562 121.5128125 -175.9609375 120.1953125 C-175.74672196 116.7586951 -174.69310834 114.42333432 -173.0625 111.40625 C-169.84398478 105.42304677 -168.68027434 99.32271996 -167.40234375 92.6953125 C-163.10676005 70.56806157 -151.64695516 45.32291306 -132.40234375 32.0703125 C-126.20629564 28.16236237 -119.82011085 24.59779468 -113.40234375 21.0703125 C-112.67515137 20.66683594 -111.94795898 20.26335937 -111.19873047 19.84765625 C-98.44387186 12.78655695 -98.44387186 12.78655695 -92.45703125 10.76953125 C-89.73211941 9.84223236 -87.07724961 8.75808072 -84.40234375 7.6953125 C-82.07242025 6.81127295 -79.73890717 5.93665008 -77.40234375 5.0703125 C-76.23058594 4.63203125 -75.05882812 4.19375 -73.8515625 3.7421875 C-51.39147946 -4.00106024 -22.93586197 -6.98160398 0 0 Z " fill="#FBFBFB" transform="translate(280.40234375,51.9296875)"/>
<path d="M0 0 C12.85615006 -0.06942633 25.71225573 -0.12277381 38.56855488 -0.15543652 C44.53787659 -0.17111079 50.50707032 -0.19238133 56.47631836 -0.22631836 C62.23400828 -0.25884878 67.99157488 -0.27683973 73.74934959 -0.28463173 C75.94905731 -0.29018659 78.14875807 -0.30103349 80.34841347 -0.31719017 C83.42293659 -0.33888028 86.49694623 -0.34197043 89.5715332 -0.34057617 C90.48647049 -0.351362 91.40140778 -0.36214783 92.34407043 -0.3732605 C93.5997583 -0.36707451 93.5997583 -0.36707451 94.8808136 -0.36076355 C95.60810826 -0.36352893 96.33540293 -0.36629431 97.08473682 -0.36914349 C99.61654229 0.11883096 100.50345493 0.91943309 102 3 C102 4.32 102 5.64 102 7 C102.82274414 6.83846436 103.64548828 6.67692871 104.49316406 6.51049805 C108.38305763 5.94423743 112.18861094 5.83804837 116.109375 5.83203125 C117.25965179 5.82703865 117.25965179 5.82703865 118.4331665 5.82194519 C120.05016484 5.81690324 121.6671735 5.81453602 123.28417969 5.81469727 C125.72869497 5.81251898 128.17275235 5.79435692 130.6171875 5.77539062 C138.63137703 5.74576435 146.21573081 5.85686847 154 8 C155.91619141 8.48146484 155.91619141 8.48146484 157.87109375 8.97265625 C167.81086368 12.01011059 176.53158864 16.44344218 182.625 25.3125 C186.01809601 34.41216658 185.2069763 45.14495918 185.25 54.75 C185.2809375 56.49990234 185.2809375 56.49990234 185.3125 58.28515625 C185.35942037 68.64282875 183.21490075 74.98734625 177.0625 83.1875 C176.63259766 83.77724609 176.20269531 84.36699219 175.75976562 84.97460938 C174.52250969 86.66245927 173.26573224 88.33343969 172 90 C171.32710938 90.89332031 170.65421875 91.78664063 169.9609375 92.70703125 C163.06759858 100.76756899 152.35366857 105.82379553 141.99609375 107.48046875 C125.54531479 108.29095986 109.71051247 98.10712479 97.76269531 87.62597656 C86.67712907 77.4658601 78.59060962 66.43967452 72 53 C71.61070312 52.33484375 71.22140625 51.6696875 70.8203125 50.984375 C69.6285004 48.10132477 69.56108658 45.35144293 69.375 42.25 C69.26285156 40.49429688 69.26285156 40.49429688 69.1484375 38.703125 C69.07496094 37.36507812 69.07496094 37.36507812 69 36 C67.81470703 36.05027344 67.81470703 36.05027344 66.60546875 36.1015625 C64 36 64 36 62.3125 34.375 C60.81493298 31.66511683 59.91813998 28.95116422 59 26 C57.18812158 24.18812158 54.7302249 24.86765538 52.32226562 24.86328125 C51.57654297 24.86714844 50.83082031 24.87101562 50.0625 24.875 C48.9497168 24.86919922 48.9497168 24.86919922 47.81445312 24.86328125 C43.77677122 24.78260332 43.77677122 24.78260332 40 26 C39.731875 27.0725 39.46375 28.145 39.1875 29.25 C38 33 38 33 35.54296875 35.23828125 C32.43886556 38.60940407 31.95086863 41.59822267 31.125 45.9375 C26.36221855 66.17984734 9.70234205 85.10842267 -7.62890625 96.04418945 C-21.45281729 104.23111022 -37.90780306 107.60388695 -53.71875 104.19921875 C-63.48443772 100.8161055 -71.02425542 94.37334474 -77 86 C-78.15892682 83.4936128 -79.18418364 81.08305876 -80.125 78.5 C-80.38361816 77.79149902 -80.64223633 77.08299805 -80.90869141 76.35302734 C-86.85275781 59.42593871 -87.61469035 40.4453391 -80 24 C-75.84057013 16.84621617 -70.59669947 12.37989189 -62.875 9.3125 C-61.84117187 8.89613281 -60.80734375 8.47976562 -59.7421875 8.05078125 C-47.54864414 3.3783266 -33.02759451 4.87287729 -20.125 4.9375 C-18.3580742 4.94252982 -16.591147 4.94709008 -14.82421875 4.95117188 C-10.54944374 4.9620491 -6.27473792 4.97923023 -2 5 C-1.34 3.35 -0.68 1.7 0 0 Z " fill="#020202" transform="translate(200,163)"/>
<path d="M0 0 C0.33 0 0.66 0 1 0 C1.50581854 3.39499304 2.00362244 6.79111482 2.5 10.1875 C2.64308594 11.14720703 2.78617187 12.10691406 2.93359375 13.09570312 C3.06894531 14.02705078 3.20429688 14.95839844 3.34375 15.91796875 C3.53227539 17.19837036 3.53227539 17.19837036 3.72460938 18.50463867 C4.00272556 21.02469675 4.047608 23.46685782 4 26 C4.63808594 25.98839844 5.27617187 25.97679687 5.93359375 25.96484375 C6.75988281 25.95582031 7.58617187 25.94679687 8.4375 25.9375 C9.26121094 25.92589844 10.08492188 25.91429687 10.93359375 25.90234375 C13 26 13 26 14 27 C14.04063832 28.66617115 14.042721 30.33388095 14 32 C11.59454362 33.20272819 10.05003047 33.10071472 7.375 33.0625 C6.14910156 33.04896484 6.14910156 33.04896484 4.8984375 33.03515625 C4.27195312 33.02355469 3.64546875 33.01195312 3 33 C3.03480469 33.72703125 3.06960938 34.4540625 3.10546875 35.203125 C3.39851804 46.08781286 1.85333129 54.58272707 -4.1875 63.75 C-9.59213185 72.09990829 -8.20965664 76.94545502 -6.39453125 86.38671875 C-5.68138739 91.11041422 -6.2376676 94.54162498 -8.4375 98.75 C-11.53566804 101.47034267 -13.99987552 101.98239057 -17.9375 102.97265625 C-22.52305629 104.51092322 -26.58881368 106.92381371 -30.73364258 109.39575195 C-33.60247223 111.03686954 -35.49487767 112.02779215 -38.83984375 111.84375 C-41.65454652 110.74433626 -42.53921795 109.6294077 -44 107 C-44.36350784 105.33965337 -44.70082988 103.67313661 -45 102 C-58.54361692 107.58033516 -58.54361692 107.58033516 -67 119 C-67.556875 120.7325 -67.556875 120.7325 -68.125 122.5 C-68.41375 123.325 -68.7025 124.15 -69 125 C-71.125 125.875 -71.125 125.875 -73 126 C-72.67 126.66773438 -72.34 127.33546875 -72 128.0234375 C-70.76057657 131.71265882 -70.87748911 134.74293606 -71 138.625 C-71.33942055 144.17376624 -71.33942055 144.17376624 -69 149 C-69.21094184 151.74224389 -69.91119161 153.79463061 -71 156.3125 C-74.32611814 159.11891218 -77.76728715 158.24537466 -82 158 C-82 154.7 -82 151.4 -82 148 C-84.31 148 -86.62 148 -89 148 C-89.66 150.97 -90.32 153.94 -91 157 C-92.32 157.33 -93.64 157.66 -95 158 C-97.40179685 155.59820315 -97.25598087 155.03049993 -97.265625 151.75390625 C-97.26820313 150.91666016 -97.27078125 150.07941406 -97.2734375 149.21679688 C-97.26570312 148.34087891 -97.25796875 147.46496094 -97.25 146.5625 C-97.25773438 145.69044922 -97.26546875 144.81839844 -97.2734375 143.91992188 C-97.27085937 143.08138672 -97.26828125 142.24285156 -97.265625 141.37890625 C-97.26336914 140.6113501 -97.26111328 139.84379395 -97.25878906 139.05297852 C-97 137 -97 137 -95 134 C-95.886875 133.71125 -96.77375 133.4225 -97.6875 133.125 C-100.50382424 132.16851252 -103.25083156 131.13201054 -106 130 C-106.66 130.66 -107.32 131.32 -108 132 C-111.6828085 131.8916821 -113.63136991 130.53217495 -116.4375 128.375 C-121.46120678 124.99050657 -126.25585603 126.02888865 -132.0234375 126.80078125 C-133.00570312 126.86652344 -133.98796875 126.93226563 -135 127 C-135.66 126.34 -136.32 125.68 -137 125 C-139.68416549 125.2216223 -139.68416549 125.2216223 -143 126 C-144.26070313 126.17015625 -144.26070313 126.17015625 -145.546875 126.34375 C-148.13159033 126.73220433 -150.52488318 127.15692742 -153 128 C-154.71510577 130.32658672 -154.71510577 130.32658672 -155 133 C-155.33 133.99 -155.66 134.98 -156 136 C-156.1921549 140.5085621 -156.1921549 140.5085621 -155.5 144.9375 C-154.69145507 148.27274782 -154.942953 151.57718 -155 155 C-158.13178854 156.56589427 -161.43900246 156.30810447 -164.875 156.375 C-165.95587891 156.43107422 -165.95587891 156.43107422 -167.05859375 156.48828125 C-170.86748316 156.55141201 -172.58263889 156.39820355 -175.3828125 153.7265625 C-175.91648437 152.82679688 -176.45015625 151.92703125 -177 151 C-177.59941406 150.04867187 -177.59941406 150.04867187 -178.2109375 149.078125 C-179.26705039 146.29667918 -179.4317582 143.71304098 -179.625 140.75 C-179.73714844 139.13351562 -179.73714844 139.13351562 -179.8515625 137.484375 C-179.90054688 136.66453125 -179.94953125 135.8446875 -180 135 C-181.32 135 -182.64 135 -184 135 C-183.71125 135.86625 -183.4225 136.7325 -183.125 137.625 C-182.568125 139.295625 -182.568125 139.295625 -182 141 C-181.62875 142.010625 -181.2575 143.02125 -180.875 144.0625 C-180.02690078 146.90969022 -179.74741183 149.05313799 -180 152 C-180.33 152.33 -180.66 152.66 -181 153 C-183.66666667 153 -186.33333333 153 -189 153 C-189.33 153.33 -189.66 153.66 -190 154 C-191.66617115 154.04063832 -193.33388095 154.042721 -195 154 C-199.93285546 146.64476016 -201.46487807 141.08211113 -201.1875 132.375 C-200.57217542 122.26493299 -200.57217542 122.26493299 -204 113 C-207.39334262 109.85675299 -211.08209925 107.4395462 -215 105 C-216.66855365 103.85691623 -218.33540621 102.7113426 -220 101.5625 C-222.42480307 99.9266494 -224.19513815 98.93495395 -227 98 C-227.268125 98.886875 -227.53625 99.77375 -227.8125 100.6875 C-229.86157518 106.40334129 -229.86157518 106.40334129 -232 109 C-236.91189344 109.60103337 -239.35460669 108.51959254 -243.3125 105.6875 C-247.4314975 102.90439358 -250.98989616 101.18513397 -255.7265625 99.80859375 C-261.25019787 97.84400179 -266.7313248 94.9030128 -270 90 C-270.22171657 87.30772741 -270.32454269 84.7528359 -270.3125 82.0625 C-270.32861328 81.34642578 -270.34472656 80.63035156 -270.36132812 79.89257812 C-270.36546697 75.42675935 -269.70945133 73.42434613 -267 70 C-266.43978142 65.36263513 -267.42830108 62.60935978 -269.625 58.5625 C-272.47786922 52.71291942 -272.47786922 52.71291942 -271.3125 48.8125 C-270.879375 47.884375 -270.44625 46.95625 -270 46 C-268.31767872 49.04531306 -267.2732343 52.18219032 -266.20068359 55.48291016 C-262.35857791 66.88606563 -256.5637368 74.96887268 -245.625 80.625 C-234.52471617 85.69188417 -220.57232218 85.55242652 -208.9296875 82.1015625 C-198.80237039 78.29369127 -190.04934687 73.29771006 -182 66 C-181.23042969 65.31164062 -180.46085937 64.62328125 -179.66796875 63.9140625 C-174.53177366 59.06661432 -170.6106703 53.84710298 -166.84375 47.8828125 C-165 45 -165 45 -163.34375 42.8671875 C-159.01757174 37.23874129 -157.46374116 31.32060954 -155.99926758 24.47021484 C-154.6181232 18.57826437 -152.43468478 16.0789614 -148 12 C-147.06263379 9.68967507 -146.57352006 7.43746027 -146 5 C-142.85489907 3.42744954 -139.51234555 3.77427332 -136.0625 3.75 C-135.33353516 3.729375 -134.60457031 3.70875 -133.85351562 3.6875 C-128.51198715 3.64833206 -128.51198715 3.64833206 -126.06640625 5.328125 C-124.52443008 7.74558215 -123.79971284 10.25812741 -123 13 C-122.67 13.99 -122.34 14.98 -122 16 C-120.35 16 -118.7 16 -117 16 C-116.97164062 16.71800781 -116.94328125 17.43601563 -116.9140625 18.17578125 C-115.37806831 34.84339391 -105.38065563 49.24858646 -94 61 C-93.17242187 61.86753906 -92.34484375 62.73507813 -91.4921875 63.62890625 C-79.82715407 75.02639305 -63.77198698 85.545797 -47.1875 86.625 C-37.01747035 86.25080706 -25.13209406 81.33754533 -18 74 C-9.9700984 64.6027777 -1.88136113 55.02649465 -1.8671875 42.1953125 C-1.86452881 40.49266235 -1.86452881 40.49266235 -1.86181641 38.75561523 C-1.86616699 37.55751221 -1.87051758 36.35940918 -1.875 35.125 C-1.8757251 33.30174194 -1.8757251 33.30174194 -1.87646484 31.44165039 C-1.905315 24.0077618 -2.14612172 16.69951668 -2.9765625 9.30859375 C-2.98429687 8.54675781 -2.99203125 7.78492188 -3 7 C-2.34 6.34 -1.68 5.68 -1 5 C-0.35232207 2.42938689 -0.35232207 2.42938689 0 0 Z " fill="#FAFAFA" transform="translate(386,183)"/>
<path d="M0 0 C4.26769478 0.25104087 6.49837505 0.59651906 9.875 3.3125 C11.7836979 5.72644147 12.66659445 6.99935003 13 10 C13.639375 9.505 14.27875 9.01 14.9375 8.5 C19.06621198 6.47777372 22.47955041 6.2849904 27 7 C32.48760331 9.64580874 32.48760331 9.64580874 33.875 13.3125 C34 16 34 16 33.875 19.25390625 C34.00615598 23.1844871 34.75749153 25.9525087 36.125 29.625 C36.57488281 30.83929688 37.02476562 32.05359375 37.48828125 33.3046875 C38.95007721 36.87796652 40.59308668 40.29483689 42.3125 43.75 C45.48312855 50.4245796 46.039988 55.80111795 44.26953125 62.94921875 C43.92163569 66.88699309 44.96509672 68.20771538 47.25 71.375 C50.31680199 75.84971507 52.34749032 79.84805806 54 85 C54.99 85 55.98 85 57 85 C57.33 84.34 57.66 83.68 58 83 C58.99 83 59.98 83 61 83 C60.67 82.67 60.34 82.34 60 82 C59.85884839 79.32941149 59.95752893 76.67567762 60 74 C61.890625 74.203125 61.890625 74.203125 64 75 C65.046875 77.109375 65.046875 77.109375 65.75 79.75 C65.99234375 80.61109375 66.2346875 81.4721875 66.484375 82.359375 C66.99596791 84.97935083 67.09574357 87.33832863 67 90 C67.66 90.33 68.32 90.66 69 91 C69.495 89.02 69.495 89.02 70 87 C73.37462715 87.54723683 75.08235 88.0549 78 90 C80.03923444 94.53163209 80.3286757 98.93309549 80.55859375 103.828125 C80.81234148 106.38399136 80.81234148 106.38399136 84 108 C83.98839844 107.00097656 83.97679687 106.00195312 83.96484375 104.97265625 C83.95582031 103.68230469 83.94679688 102.39195312 83.9375 101.0625 C83.92589844 99.77472656 83.91429687 98.48695313 83.90234375 97.16015625 C84 94 84 94 85 93 C87.86264617 92.69866882 89.4047729 92.55357968 91.75 94.3125 C94.21587403 97.64142994 94.10940228 100.70080616 94.0625 104.6875 C94.05347656 105.68136719 94.04445313 106.67523438 94.03515625 107.69921875 C94.02355469 108.45847656 94.01195312 109.21773438 94 110 C94.66 110 95.32 110 96 110 C95.98839844 109.37351562 95.97679687 108.74703125 95.96484375 108.1015625 C95.95582031 107.28429687 95.94679688 106.46703125 95.9375 105.625 C95.92589844 104.81289063 95.91429687 104.00078125 95.90234375 103.1640625 C96 101 96 101 97 99 C101.54805635 98.82164485 104.8794254 99.00214565 109 101 C109.99 99.35 110.98 97.7 112 96 C117.77885247 96.36117828 122.85308756 97.71626049 127 102 C127.77993294 104.79758554 127.508208 107.16773968 127 110 C126.835 110.99 126.67 111.98 126.5 113 C126.335 113.66 126.17 114.32 126 115 C126.99 115 127.98 115 129 115 C128.88398438 114.21496094 128.76796875 113.42992187 128.6484375 112.62109375 C128.35320709 109.18376824 128.30068945 106.38702218 129 103 C131.84553472 99.73882537 134.97076598 97.58116911 139 96 C141.328125 96.33203125 141.328125 96.33203125 143 97 C143.04898438 97.85464844 143.09796875 98.70929688 143.1484375 99.58984375 C143.22320312 100.69457031 143.29796875 101.79929687 143.375 102.9375 C143.44460938 104.03964844 143.51421875 105.14179688 143.5859375 106.27734375 C143.72257813 107.17582031 143.85921875 108.07429688 144 109 C144.66 109.33 145.32 109.66 146 110 C145.938125 108.989375 145.87625 107.97875 145.8125 106.9375 C146.03293482 102.30836872 146.68650997 99.98877591 149 96 C151.5625 94.9375 151.5625 94.9375 154 95 C156.76223278 97.76223278 156.57856291 100.20706617 157 104 C158.32 104.33 159.64 104.66 161 105 C160.6390625 104.43152344 160.278125 103.86304688 159.90625 103.27734375 C156.9825411 98.412617 155.04417469 94.85443002 156 89 C159.20808915 86.8612739 160.27698497 86.52269038 164 87 C166.67927341 91.01891012 166.15601248 93.24161923 166 98 C166.66 98 167.32 98 168 98 C167.9175 96.845 167.835 95.69 167.75 94.5 C167.71504967 89.60695379 169.53867784 86.13150506 172 82 C173.32 82 174.64 82 176 82 C177.0326802 84.78823655 177.04509293 85.8677274 176.0625 88.75 C175.711875 89.4925 175.36125 90.235 175 91 C175.66 91 176.32 91 177 91 C177 90.34 177 89.68 177 89 C177.99 89 178.98 89 180 89 C180.33 89.66 180.66 90.32 181 91 C182.88307443 89.11692557 182.36503069 85.78608313 182.5234375 83.2265625 C183.08976409 80.58061039 183.86920175 79.62696418 186 78 C186.66 78 187.32 78 188 78 C188 81.3 188 84.6 188 88 C191.91488381 85.39007746 193.52376502 82.359722 195 78 C195.35453819 74.99879302 195.50579249 72.01723281 195.66796875 69 C196.08934715 65.19272218 197.32939693 62.20800028 198.87890625 58.734375 C201.0924049 53.33559781 202.47620641 47.62506783 204 42 C203.34 42 202.68 42 202 42 C201.59610885 35.23856305 202.41451026 29.42488564 204.2109375 22.90234375 C204.92481323 20.27655331 205.48269674 17.66981091 206 15 C206.70434696 11.71105782 207.62211579 9.48596986 210 7 C214.83628305 7.99043705 219.47618873 8.95698846 224 11 C223.814375 9.9171875 223.814375 9.9171875 223.625 8.8125 C224 6 224 6 226.5625 3.1875 C230.00258317 0.5932056 232.71582474 0.52398053 237 1 C239.4375 1.5 239.4375 1.5 241 2 C241.33898024 7.53667724 240.356601 11.01488249 238 16 C237.69336426 16.95374512 237.38672852 17.90749023 237.07080078 18.89013672 C236.03710599 21.89223528 234.80065663 24.43538268 233.2421875 27.1953125 C232.43285767 28.63040161 232.43285767 28.63040161 231.60717773 30.09448242 C231.03555908 31.09455322 230.46394043 32.09462402 229.875 33.125 C229.29113525 34.16180908 228.70727051 35.19861816 228.10571289 36.2668457 C225.13243745 41.49361153 222.0762184 46.40695314 218.4375 51.1875 C212.24381478 60.0917409 209.45152247 75.20846619 211 86 C212.10668244 87.97765339 213.32569007 89.62687532 214.75390625 91.3828125 C217.86384773 95.41891211 218.55192972 100.0568932 218 105 C216.38928748 107.22065146 214.91855857 108.96656575 213 110.875 C212.31357422 111.59236328 212.31357422 111.59236328 211.61328125 112.32421875 C210.63614164 113.33883769 209.64881484 114.3437155 208.65307617 115.34008789 C207.48269229 116.51531164 206.32804187 117.70630165 205.18481445 118.90795898 C200.25287198 124.02052697 194.94900411 128.17716474 189.1875 132.3125 C179.92747049 139.10692151 171.99127867 146.1604656 164.625 155 C162.11059928 157.87360082 160.51749518 159.57625195 157 161 C151.57366151 161.2237074 146.8414711 160.72152151 141.5 159.625 C134.15718812 158.21227586 126.82542086 157.41974789 119.375 156.8125 C118.35599609 156.72887207 117.33699219 156.64524414 116.28710938 156.55908203 C107.03392934 155.57340363 107.03392934 155.57340363 98 157 C89.66635324 157.87590882 83.68477143 157.147274 77 152 C67.56853677 144.11509391 59.40719799 135.24719769 51.6875 125.6875 C48.15423654 121.32690549 44.48218731 117.13224975 40.6875 113 C39.93182739 112.17181763 39.93182739 112.17181763 39.16088867 111.3269043 C35.55051212 107.43189475 32.27282502 104.33330619 27.3125 102.375 C24 101 24 101 23 100 C22.90176004 98.52351124 22.87026481 97.04224583 22.875 95.5625 C22.87242187 94.75941406 22.86984375 93.95632813 22.8671875 93.12890625 C23 91 23 91 24 89 C25.37839832 72.76722085 24.76892928 53.80948119 15 40 C13.02116978 38.0289299 10.96444573 36.26043786 8.80078125 34.49609375 C5.55773312 31.80176092 4.17533959 29.6068793 3.71484375 25.38671875 C3.57500976 23.46717946 3.47027975 21.54465421 3.40625 19.62109375 C3.21205344 16.94348549 3.21205344 16.94348549 1.48046875 15.08203125 C-0.62840497 12.11625369 -0.2951301 9.83766996 -0.1875 6.25 C-0.16042969 5.07953125 -0.13335937 3.9090625 -0.10546875 2.703125 C-0.07066406 1.81109375 -0.03585938 0.9190625 0 0 Z " fill="#FAFAFA" transform="translate(129,294)"/>
<path d="M0 0 C5.73033718 1.04187949 10.25958383 4.80773594 15 8 C15.86238281 8.55042969 16.72476563 9.10085938 17.61328125 9.66796875 C22.52170352 13.05004039 25.27654017 15.93882731 26.66796875 21.80078125 C27.19157581 26.84588929 26.94896524 31.87178375 26.80297852 36.93579102 C26.7196265 43.86227475 28.27914422 49.08649706 32 55 C35.53260139 55.06371814 35.53260139 55.06371814 39 54.5 C41.38033098 53.90491726 43.55614004 53.932115 46 54 C45.88541307 52.56163249 45.75790884 51.12429034 45.625 49.6875 C45.52058594 48.48673828 45.52058594 48.48673828 45.4140625 47.26171875 C45.10435574 44.72775559 45.10435574 44.72775559 43 42 C42.875 39.3125 42.875 39.3125 43 37 C45.475 36.505 45.475 36.505 48 36 C48.01417969 36.845625 48.02835938 37.69125 48.04296875 38.5625 C48.28620904 47.56749475 48.28620904 47.56749475 51.7265625 55.67578125 C57.45283079 59.01118494 65.63068123 57.47621075 72 57 C71.7834375 55.82244141 71.7834375 55.82244141 71.5625 54.62109375 C68.73584494 38.6230113 68.73584494 38.6230113 72.46875 31.73046875 C75.47819864 28.3294847 79.69598298 27.8010631 84 27 C85.155 26.731875 86.31 26.46375 87.5 26.1875 C88.7375 26.0946875 88.7375 26.0946875 90 26 C90.99 26.99 90.99 26.99 92 28 C94.19478294 27.8251169 96.38274837 27.56038535 98.5625 27.25 C103.86890409 26.74980617 106.73259729 26.81108517 111.0625 30 C111.71347656 30.5775 112.36445313 31.155 113.03515625 31.75 C114.96862542 33.27326197 114.96862542 33.27326197 117.49609375 32.6875 C118.32238281 32.460625 119.14867187 32.23375 120 32 C123.86790003 32 125.01319413 32.27370354 128.25 34 C128.95640625 34.37125 129.6628125 34.7425 130.390625 35.125 C131.18726563 35.558125 131.18726563 35.558125 132 36 C131.67 36.99 131.34 37.98 131 39 C130.9193378 40.48123547 130.89238807 41.96582204 130.90234375 43.44921875 C130.90556641 44.29677734 130.90878906 45.14433594 130.91210938 46.01757812 C130.92048828 46.89865234 130.92886719 47.77972656 130.9375 48.6875 C130.94426758 50.02651367 130.94426758 50.02651367 130.95117188 51.39257812 C130.96295017 53.59511987 130.97939836 55.79752599 131 58 C132.32 58.33 133.64 58.66 135 59 C135.99 56.03 136.98 53.06 138 50 C140.31 50 142.62 50 145 50 C145 53.3 145 56.6 145 60 C151.03069724 59.8963516 151.03069724 59.8963516 156.125 57.25 C157.2580273 54.33650122 156.83667843 52.99809771 156 50 C155.12316904 45.03129123 154.970015 40.33376991 155.03125 35.3125 C154.99697321 32.77601754 154.65368472 30.45131769 154 28 C154.928125 27.690625 154.928125 27.690625 155.875 27.375 C158.87096017 25.43643754 158.89206401 23.38535998 160 20 C163.97832747 11.4192937 170.50941802 7.52546194 179 4 C179.99 4 180.98 4 182 4 C182.34611328 4.84884766 182.34611328 4.84884766 182.69921875 5.71484375 C183.02535156 6.44832031 183.35148438 7.18179687 183.6875 7.9375 C184.00074219 8.66839844 184.31398438 9.39929688 184.63671875 10.15234375 C185.88973885 12.17265965 185.88973885 12.17265965 188.2265625 12.97265625 C192.67672071 13.01653105 195.71453471 10.67808582 199.44726562 8.44921875 C200.93769919 7.58425037 202.46671642 6.78651382 204 6 C204.99 6.495 204.99 6.495 206 7 C205.030625 7.556875 204.06125 8.11375 203.0625 8.6875 C199.57163056 11.32346264 199.62574898 11.93263166 199 16 C197.66666667 17 196.33333333 18 195 19 C194.1957792 21.59855733 194.1957792 21.59855733 194 24 C193.40832031 23.86722656 192.81664062 23.73445313 192.20703125 23.59765625 C188.14553475 22.68994822 184.08625829 21.7908887 180 21 C177.24088478 24.99649001 176.21247486 28.78088572 175.4375 33.5 C175.31528076 34.19544922 175.19306152 34.89089844 175.06713867 35.60742188 C173.94808619 42.05575055 172.9426138 48.52368873 172 55 C172.66 55 173.32 55 174 55 C173.31568422 59.94573679 172.01800511 64.51382407 170.5 69.25 C170.16162109 70.32894531 170.16162109 70.32894531 169.81640625 71.4296875 C168.14580676 76.70838648 168.14580676 76.70838648 167 79 C166.89592472 80.85311813 166.81632935 82.70764721 166.75 84.5625 C166.30429061 90.52925471 164.84075406 95.32671254 161 100 C160.01 100.33 159.02 100.66 158 101 C158 97.7 158 94.4 158 91 C153.88693573 93.41272077 153.88693573 93.41272077 153.49609375 96.19140625 C153.47675781 96.97386719 153.45742188 97.75632812 153.4375 98.5625 C153.37109375 100.94140625 153.37109375 100.94140625 153 103 C152.01 103.66 151.02 104.32 150 105 C150 104.01 150 103.02 150 102 C149.01 102 148.02 102 147 102 C147 102.66 147 103.32 147 104 C146.34 104 145.68 104 145 104 C145.33 101.36 145.66 98.72 146 96 C144.68 96 143.36 96 142 96 C139.54510684 101.12325529 138.49658297 105.33895411 138 111 C137.34 111 136.68 111 136 111 C135.34 107.7 134.68 104.4 134 101 C129.26352314 100.73647686 129.26352314 100.73647686 126 102 C127.26305646 109.02465479 127.26305646 109.02465479 131 115 C131 115.99 131 116.98 131 118 C129.35 117.67 127.7 117.34 126 117 C125.67 114.69 125.34 112.38 125 110 C123.35 109.67 121.7 109.34 120 109 C117.77343836 113.74354436 116.53851968 117.72250715 116 123 C114.515 122.505 114.515 122.505 113 122 C112.67 118.04 112.34 114.08 112 110 C108.40563502 110.89859124 107.14103515 111.42400146 104.375 113.5625 C101.21246459 116 101.21246459 116 99 116 C99 119.96 99 123.92 99 128 C98.01 128 97.02 128 96 128 C96 123.71 96 119.42 96 115 C94.618125 114.175 93.23625 113.35 91.8125 112.5 C91.03519531 112.0359375 90.25789063 111.571875 89.45703125 111.09375 C86.70893619 109.87043264 84.97379465 109.59813586 82 110 C80.1375562 112.40858714 80.1375562 112.40858714 79 115 C78.319375 114.690625 77.63875 114.38125 76.9375 114.0625 C73.63034088 112.86629351 70.48454122 112.40994603 67 112 C66.67 115.63 66.34 119.26 66 123 C65.34 123 64.68 123 64 123 C63.94392578 121.89591797 63.94392578 121.89591797 63.88671875 120.76953125 C63.62189384 113.27409984 63.62189384 113.27409984 60 107 C58.35 107 56.7 107 55 107 C54.67 111.62 54.34 116.24 54 121 C52.68 120.34 51.36 119.68 50 119 C49.20703125 116.06640625 49.20703125 116.06640625 48.8125 112.5625 C48.24235297 107.70722553 48.24235297 107.70722553 47 103 C44.04622502 100.63019987 44.04622502 100.63019987 40 101 C39.505 102.485 39.505 102.485 39 104 C38.01 103.67 37.02 103.34 36 103 C35.87625 101.824375 35.7525 100.64875 35.625 99.4375 C35.11188588 95.43235926 34.39506274 91.79767079 33 88 C32.01 87.67 31.02 87.34 30 87 C30.165 88.258125 30.33 89.51625 30.5 90.8125 C30.82158241 93.26456585 31 95.51650694 31 98 C30.01 97.34 29.02 96.68 28 96 C27.34 97.32 26.68 98.64 26 100 C23.62163766 98.76981258 22.24564857 97.64134194 21.27734375 95.11328125 C20.82663561 93.56683955 20.37751745 92.01993389 19.9296875 90.47265625 C18.89051671 87.70881124 17.49416604 85.68762011 15.75 83.3125 C12.98459885 79.36192693 12.98459885 79.36192693 13.125 76.0625 C13.41375 75.051875 13.7025 74.04125 14 73 C14.87418358 65.22333426 13.08002354 59.70664973 9.625 52.8125 C2.56887813 38.27027384 2.56887813 38.27027384 3.25 30.3125 C3.36565877 27.52224445 3.36565877 27.52224445 3 25 C-0.83246807 21.0740571 -4.6370139 20.42903889 -10 20 C-10 19.34 -10 18.68 -10 18 C-8.02 17.01 -6.04 16.02 -4 15 C-4.33 14.01 -4.66 13.02 -5 12 C-7.01508358 11.26676204 -7.01508358 11.26676204 -9 11 C-7.68 11 -6.36 11 -5 11 C-4.731875 10.29875 -4.46375 9.5975 -4.1875 8.875 C-2.9318551 5.8350176 -1.49764877 2.9272226 0 0 Z " fill="#040404" transform="translate(159,281)"/>
<path d="M0 0 C1.15452164 -0.00287018 1.15452164 -0.00287018 2.33236694 -0.00579834 C3.96132738 -0.00715764 5.59029874 -0.00347897 7.21923828 0.00488281 C9.68157118 0.0154984 12.1431598 0.00502488 14.60546875 -0.0078125 C22.64339947 -0.01562192 30.28019598 0.12035077 38.0859375 2.265625 C39.36339844 2.58660156 40.64085937 2.90757812 41.95703125 3.23828125 C51.89680118 6.27573559 60.61752614 10.70906718 66.7109375 19.578125 C70.10403351 28.67779158 69.2929138 39.41058418 69.3359375 49.015625 C69.3565625 50.18222656 69.3771875 51.34882813 69.3984375 52.55078125 C69.44535787 62.90845375 67.30083825 69.25297125 61.1484375 77.453125 C60.71853516 78.04287109 60.28863281 78.63261719 59.84570312 79.24023438 C58.60844719 80.92808427 57.35166974 82.59906469 56.0859375 84.265625 C55.41304688 85.15894531 54.74015625 86.05226563 54.046875 86.97265625 C47.15353608 95.03319399 36.43960607 100.08942053 26.08203125 101.74609375 C9.63125229 102.55658486 -6.20355003 92.37274979 -18.15136719 81.89160156 C-29.23693343 71.7314851 -37.32345288 60.70529952 -43.9140625 47.265625 C-44.30335938 46.52183594 -44.69265625 45.77804688 -45.09375 45.01171875 C-48.27267586 38.245148 -48.02818831 27.72212823 -46.265625 20.671875 C-43.25989612 13.17039781 -38.31191612 8.04360545 -30.9140625 4.828125 C-25.77338836 3.00275664 -21.45354577 2.70129538 -16.1015625 3.890625 C-15.3796875 4.014375 -14.6578125 4.138125 -13.9140625 4.265625 C-13.2540625 3.605625 -12.5940625 2.945625 -11.9140625 2.265625 C-8.20221433 -0.25785369 -4.32500332 -0.02380834 0 0 Z " fill="#020202" transform="translate(315.9140625,168.734375)"/>
<path d="M0 0 C3.09312563 1.0916914 5.36909117 2.26363655 8.0625 4.1875 C10.7442042 6.21296502 10.7442042 6.21296502 13.25 5.9375 C15.34616272 4.99154148 15.34616272 4.99154148 17 2 C18.32 2.33 19.64 2.66 21 3 C21.27199219 3.95519531 21.54398437 4.91039062 21.82421875 5.89453125 C22.21578547 7.26312399 22.60774893 8.63160325 23 10 C23.21350098 10.74556152 23.42700195 11.49112305 23.64697266 12.25927734 C26.34035853 21.60645895 29.02768582 30.79950758 33.01953125 39.6875 C35.76718141 46.16801353 36.02628455 53.08155031 35 60 C32.42895322 65.27093873 29.14668101 69.85331899 25 74 C21.75201407 73.95735686 20.73071013 72.73913798 18.37890625 70.4609375 C16.94863041 68.91663968 15.54418971 67.35417554 14.15429688 65.7734375 C11.37432737 62.76907905 11.37432737 62.76907905 7.53125 61.8125 C3.39884384 63.75115968 0.51820425 67.0068009 -2.62695312 70.2265625 C-4.16015625 71.7265625 -4.16015625 71.7265625 -7 74 C-9.296875 73.97265625 -9.296875 73.97265625 -11 73 C-16.33157134 63.17868438 -15.03204074 47.23140634 -12.765625 36.546875 C-11.61749074 32.72757123 -9.96616462 29.21082322 -8.234375 25.625 C-5.42015458 19.64032873 -3.81697029 13.46997931 -2.47265625 7.01953125 C-1.89736072 4.56145033 -1.03803915 2.29851527 0 0 Z " fill="#060606" transform="translate(243,204)"/>
<path d="M0 0 C-0.99 0.99 -1.98 1.98 -3 3 C-1.97977128 5.74676963 -0.89494656 8.17374222 0.625 10.6875 C2 13 2 13 2 15 C2.66 15 3.32 15 4 15 C4.185625 13.63875 4.185625 13.63875 4.375 12.25 C5 9 5 9 6.0625 6.9375 C7.36296744 4.60860011 7.36296744 4.60860011 7 0 C11.95 0 16.9 0 22 0 C20.35 1.65 18.7 3.3 17 5 C14.54851116 7.87174407 12.53574788 10.54456727 11 14 C12.32 14 13.64 14 15 14 C15 14.66 15 15.32 15 16 C14.21625 16.2475 13.4325 16.495 12.625 16.75 C9.6083499 18.18650005 9.28434435 19.04720831 8 22 C8.79881592 21.81300537 9.59763184 21.62601074 10.4206543 21.43334961 C26.90402829 17.65095858 42.01395466 14.93767661 59 17 C58.67 17.99 58.34 18.98 58 20 C56.71222656 20.20496094 55.42445313 20.40992187 54.09765625 20.62109375 C52.41923637 20.89301652 50.7408528 21.16516351 49.0625 21.4375 C47.78729492 21.63956055 47.78729492 21.63956055 46.48632812 21.84570312 C45.27299805 22.04389648 45.27299805 22.04389648 44.03515625 22.24609375 C43.2862915 22.36654053 42.53742676 22.4869873 41.76586914 22.61108398 C39.9829115 22.83759904 39.9829115 22.83759904 39 24 C36.91846065 24.13536022 34.83438794 24.23215465 32.75 24.3125 C25.38664062 24.76609503 18.92131801 26.52810071 12 29 C13.05109514 30.75687372 14.11643123 32.50523126 15.1875 34.25 C15.77917969 35.22453125 16.37085938 36.1990625 16.98046875 37.203125 C19.77353289 41.07127572 22.45757755 43.48585918 27 45 C27 45.66 27 46.32 27 47 C13.47 47 -0.06 47 -14 47 C-11.72766886 42.45533772 -9.15422739 38.14297289 -6.55859375 33.77734375 C-4.90992303 31.04393928 -4.90992303 31.04393928 -4 28 C-12.91 30.475 -12.91 30.475 -22 33 C-22.20438202 39.33233517 -22.20438202 39.33233517 -21 45 C-20.34 45 -19.68 45 -19 45 C-19 45.66 -19 46.32 -19 47 C-24.28 47 -29.56 47 -35 47 C-35 46.34 -35 45.68 -35 45 C-34.51917969 44.60167969 -34.03835937 44.20335937 -33.54296875 43.79296875 C-31.25238913 41.13125725 -31.48339453 38.76456949 -31.3125 35.3125 C-31.24675781 34.13300781 -31.18101562 32.95351562 -31.11328125 31.73828125 C-31.07589844 30.83464844 -31.03851563 29.93101563 -31 29 C-33.68857637 29.93449955 -36.37584536 30.87250421 -39.0625 31.8125 C-39.81466797 32.07353516 -40.56683594 32.33457031 -41.34179688 32.60351562 C-44.89772002 33.85039777 -48.37670284 35.14043466 -51.80859375 36.69921875 C-55 38 -55 38 -59 38 C-59 37.34 -59 36.68 -59 36 C-57.35 35.34 -55.7 34.68 -54 34 C-54.97839844 34.19916016 -54.97839844 34.19916016 -55.9765625 34.40234375 C-60.6408287 35.34482822 -65.29868454 36.25768703 -70 37 C-70.495 35.515 -70.495 35.515 -71 34 C-60.60968729 29.81757033 -51.01062592 27.21018761 -39.828125 26.32421875 C-36.79083877 26.0669792 -33.96289263 25.6823985 -31 25 C-30.68343091 11.87537313 -30.68343091 11.87537313 -37 1 C-24.65864238 -0.07650471 -12.38100347 -0.11028714 0 0 Z " fill="#141414" transform="translate(257,93)"/>
<path d="M0 0 C29.7 0 59.4 0 90 0 C90.495 1.485 90.495 1.485 91 3 C89.9378125 3.32871094 88.875625 3.65742188 87.78125 3.99609375 C77.9176169 7.24044913 70.9646704 10.56113389 65.86328125 20.1328125 C64.9023471 22.20105192 64.9023471 22.20105192 64 25 C63.01 24.67 62.02 24.34 61 24 C60.525625 22.865625 60.05125 21.73125 59.5625 20.5625 C58.38002121 17.10113513 58.38002121 17.10113513 56.4609375 15.796875 C52.68281753 14.57348377 49.00854355 14.67165244 45.0625 14.6875 C44.26392578 14.67138672 43.46535156 14.65527344 42.64257812 14.63867188 C37.96820212 14.63479915 34.73468865 14.87825644 31 18 C29.80126145 19.76580116 29.80126145 19.76580116 29.1875 21.6875 C28.795625 22.780625 28.40375 23.87375 28 25 C27.34 24.67 26.68 24.34 26 24 C25.5002599 22.41411956 25.07348202 20.80483572 24.6875 19.1875 C23.39163558 14.61615917 22.19825271 12.49895995 18 10 C17.26136719 9.52820313 16.52273437 9.05640625 15.76171875 8.5703125 C12.65565815 6.80420732 9.5331393 5.56289044 6.1875 4.3125 C5.02605469 3.87550781 3.86460937 3.43851563 2.66796875 2.98828125 C1.78753906 2.66214844 0.90710938 2.33601562 0 2 C0 1.34 0 0.68 0 0 Z " fill="#F3F3F3" transform="translate(205,168)"/>
<path d="M0 0 C12.07384494 -0.06943244 24.14764258 -0.12277691 36.22164631 -0.15543652 C41.82776745 -0.17110947 47.43375226 -0.19237755 53.03979492 -0.22631836 C58.44735751 -0.25885356 63.85478875 -0.27684073 69.26244164 -0.28463173 C71.32817847 -0.29018574 73.39390791 -0.30103101 75.459589 -0.31719017 C78.34732365 -0.33888675 81.23451175 -0.34197018 84.12231445 -0.34057617 C84.98114731 -0.351362 85.83998016 -0.36214783 86.72483826 -0.3732605 C92.53037799 -0.34282473 92.53037799 -0.34282473 94.7432127 1.27254772 C96 3 96 3 96 7 C97.65 7 99.3 7 101 7 C99.25 9.0625 99.25 9.0625 97 11 C94.75 10.75 94.75 10.75 93 10 C92.67 10.99 92.34 11.98 92 13 C91.505 11.515 91.505 11.515 91 10 C88.99983534 8.79117904 88.99983534 8.79117904 87 8 C87.99 8 88.98 8 90 8 C89.505 7.01 89.505 7.01 89 6 C59.3 5.67 29.6 5.34 -1 5 C-0.67 3.35 -0.34 1.7 0 0 Z " fill="#151515" transform="translate(206,163)"/>
<path d="M0 0 C0.48828125 2.01822917 0.9765625 4.03645833 1.46484375 6.0546875 C1.94846992 8.0585657 1.94846992 8.0585657 3 10 C3.12432618 12.84504568 3.1851641 15.65487152 3.1875 18.5 C3.19974609 19.28503906 3.21199219 20.07007813 3.22460938 20.87890625 C3.22986254 22.92063726 3.1222018 24.96192251 3 27 C1 29 1 29 -2.00390625 29.23046875 C-3.17824219 29.21628906 -4.35257813 29.20210938 -5.5625 29.1875 C-7.32787109 29.17783203 -7.32787109 29.17783203 -9.12890625 29.16796875 C-12 29 -12 29 -13 28 C-13.30758516 24.21649045 -13.278377 20.41947812 -13.3125 16.625 C-13.34150391 15.55765625 -13.37050781 14.4903125 -13.40039062 13.390625 C-13.41295898 11.85535156 -13.41295898 11.85535156 -13.42578125 10.2890625 C-13.44036377 9.34756348 -13.45494629 8.40606445 -13.4699707 7.43603516 C-13 5 -13 5 -11.12963867 3.24365234 C-7.21621066 0.95831447 -4.58890785 0 0 0 Z " fill="#F4F4F4" transform="translate(248,310)"/>
<path d="M0 0 C0.99 0 1.98 0 3 0 C3.33 0.66 3.66 1.32 4 2 C5.64363134 2.72159424 7.31050386 3.39351421 9 4 C9.66161312 21.22644523 9.66161312 21.22644523 6 27 C2.11000848 29.1611064 -1.59406952 29.40053913 -6 29 C-8.60845923 26.39154077 -8.35780384 25.1378953 -8.4375 21.5 C-8.3429443 14.93625848 -6.36327113 10.52465257 -3 5 C-2.46375 3.96875 -1.9275 2.9375 -1.375 1.875 C-0.694375 0.946875 -0.694375 0.946875 0 0 Z " fill="#F2F2F2" transform="translate(261,310)"/>
<path d="M0 0 C0.33 0 0.66 0 1 0 C1.50581854 3.39499304 2.00362244 6.79111482 2.5 10.1875 C2.64308594 11.14720703 2.78617187 12.10691406 2.93359375 13.09570312 C3.06894531 14.02705078 3.20429688 14.95839844 3.34375 15.91796875 C3.46943359 16.77156982 3.59511719 17.6251709 3.72460938 18.50463867 C4.00272556 21.02469675 4.047608 23.46685782 4 26 C4.63808594 25.98839844 5.27617187 25.97679687 5.93359375 25.96484375 C6.75988281 25.95582031 7.58617187 25.94679687 8.4375 25.9375 C9.26121094 25.92589844 10.08492188 25.91429687 10.93359375 25.90234375 C13 26 13 26 14 27 C14.04063832 28.66617115 14.042721 30.33388095 14 32 C11.59454362 33.20272819 10.05003047 33.10071472 7.375 33.0625 C6.14910156 33.04896484 6.14910156 33.04896484 4.8984375 33.03515625 C4.27195312 33.02355469 3.64546875 33.01195312 3 33 C3.03480469 33.72703125 3.06960938 34.4540625 3.10546875 35.203125 C3.46200089 48.44574749 0.17271637 57.91667936 -7 69 C-7.99 67.68 -8.98 66.36 -10 65 C-8.19752161 61.31120701 -6.1723788 57.77349917 -4.12109375 54.21875 C-2.09258523 50.2041408 -1.87212653 46.66654843 -1.8671875 42.1953125 C-1.86452881 40.49266235 -1.86452881 40.49266235 -1.86181641 38.75561523 C-1.86616699 37.55751221 -1.87051758 36.35940918 -1.875 35.125 C-1.8754834 33.90949463 -1.8759668 32.69398926 -1.87646484 31.44165039 C-1.905315 24.0077618 -2.14612172 16.69951668 -2.9765625 9.30859375 C-2.98429687 8.54675781 -2.99203125 7.78492188 -3 7 C-2.34 6.34 -1.68 5.68 -1 5 C-0.35232207 2.42938689 -0.35232207 2.42938689 0 0 Z " fill="#FAFAFA" transform="translate(386,183)"/>
<path d="M0 0 C0.33 0.33 0.66 0.66 1 1 C3.19012539 0.77415261 5.37723215 0.51881344 7.5625 0.25 C13.61067906 -0.26276697 16.9348728 0.180122 21.7421875 3.87109375 C22.15726562 4.24363281 22.57234375 4.61617188 23 5 C22.34 5.33 21.68 5.66 21 6 C21 8.97 21 11.94 21 15 C20.67 15 20.34 15 20 15 C19.505 10.545 19.505 10.545 19 6 C16.525 5.01 16.525 5.01 14 4 C14 3.34 14 2.68 14 2 C11.33869601 3.01755741 10.19483944 3.66684861 8.734375 6.1640625 C8.40953125 6.97617187 8.0846875 7.78828125 7.75 8.625 C7.41484375 9.44226563 7.0796875 10.25953125 6.734375 11.1015625 C6.49203125 11.72804688 6.2496875 12.35453125 6 13 C5.21625 12.505 4.4325 12.01 3.625 11.5 C1.21447673 9.83462035 1.21447673 9.83462035 -1 10 C-2.35439668 7.29120665 -2.06501451 4.99066732 -2 2 C-3.813713 2.64241894 -5.62594124 3.28903119 -7.4375 3.9375 C-8.44683594 4.29714844 -9.45617187 4.65679687 -10.49609375 5.02734375 C-12.90313745 5.76877639 -12.90313745 5.76877639 -14 7 C-14.15740605 8.70563778 -14.25093392 10.41727244 -14.31640625 12.12890625 C-14.35830078 13.16337891 -14.40019531 14.19785156 -14.44335938 15.26367188 C-14.48267578 16.35228516 -14.52199219 17.44089844 -14.5625 18.5625 C-14.62727539 20.2012207 -14.62727539 20.2012207 -14.69335938 21.87304688 C-14.79982068 24.58189564 -14.90183516 27.29083992 -15 30 C-16.32 30 -17.64 30 -19 30 C-22.34041631 11.83648634 -22.34041631 11.83648634 -18.546875 4.73046875 C-15.53667022 1.36299219 -11.25738574 0.89746285 -7 0 C-4.31633121 -1.3418344 -2.84719317 -0.73004953 0 0 Z " fill="#121212" transform="translate(250,308)"/>
<path d="M0 0 C1.91015625 0.1328125 1.91015625 0.1328125 3.91015625 1.1328125 C3.96802293 4.92441547 4.00370679 8.71590561 4.03515625 12.5078125 C4.05191406 13.58804687 4.06867188 14.66828125 4.0859375 15.78125 C4.09238281 16.8125 4.09882813 17.84375 4.10546875 18.90625 C4.11594238 19.85935059 4.12641602 20.81245117 4.13720703 21.79443359 C3.91015625 24.1328125 3.91015625 24.1328125 1.91015625 26.1328125 C-0.40234375 26.5703125 -0.40234375 26.5703125 -3.08984375 26.1328125 C-5.90234375 24.1953125 -5.90234375 24.1953125 -8.08984375 21.1328125 C-8.63397593 18.082004 -8.37644105 15.20551145 -8.08984375 12.1328125 C-8.02152344 11.14539063 -7.95320313 10.15796875 -7.8828125 9.140625 C-7.18442511 0.02607777 -7.18442511 0.02607777 0 0 Z " fill="#F5F5F5" transform="translate(282.08984375,315.8671875)"/>
<path d="M0 0 C3.140625 0.421875 3.140625 0.421875 5.40625 2.46875 C6.06109375 3.36078125 6.7159375 4.2528125 7.390625 5.171875 C8.05578125 6.05359375 8.7209375 6.9353125 9.40625 7.84375 C13.27780912 13.59877031 13.27780912 13.59877031 12.765625 16.671875 C12.45625 17.538125 12.45625 17.538125 12.140625 18.421875 C10.24849798 18.95601612 8.35170864 19.47365829 6.453125 19.984375 C5.39738281 20.27441406 4.34164062 20.56445312 3.25390625 20.86328125 C0.13367118 21.42312267 -1.83630734 21.26878264 -4.859375 20.421875 C-4.91316726 17.46330091 -4.95294593 14.50569779 -4.984375 11.546875 C-5.00113281 10.70511719 -5.01789063 9.86335938 -5.03515625 8.99609375 C-5.04160156 8.19042969 -5.04804688 7.38476562 -5.0546875 6.5546875 C-5.07039795 5.43924561 -5.07039795 5.43924561 -5.08642578 4.30126953 C-4.67941414 0.93226351 -3.16004859 0.46623668 0 0 Z " fill="#F6F6F6" transform="translate(238.859375,94.578125)"/>
<path d="M0 0 C0.79857422 -0.01611328 1.59714844 -0.03222656 2.41992188 -0.04882812 C7.09194264 -0.0526989 10.33104319 0.18865589 14.0625 3.3125 C15.13386051 5.61394109 16.14239717 7.9465213 17.0625 10.3125 C17.7225 10.6425 18.3825 10.9725 19.0625 11.3125 C19.0625 13.2925 19.0625 15.2725 19.0625 17.3125 C16.75 17.5625 16.75 17.5625 14.0625 17.3125 C11.12746461 14.48616963 10.25173372 11.13503695 9.0625 7.3125 C7.25062158 5.50062158 4.7927249 6.18015538 2.38476562 6.17578125 C1.63904297 6.17964844 0.89332031 6.18351563 0.125 6.1875 C-0.61685547 6.18363281 -1.35871094 6.17976562 -2.12304688 6.17578125 C-6.16072878 6.09510332 -6.16072878 6.09510332 -9.9375 7.3125 C-10.205625 8.405625 -10.47375 9.49875 -10.75 10.625 C-12.0822647 14.76203248 -13.37525703 15.9689191 -16.9375 18.3125 C-16.9375 16.6625 -16.9375 15.0125 -16.9375 13.3125 C-17.5975 12.9825 -18.2575 12.6525 -18.9375 12.3125 C-17.90929807 10.25609613 -16.7988645 8.28953494 -15.625 6.3125 C-15.21636719 5.61125 -14.80773437 4.91 -14.38671875 4.1875 C-10.66034397 -0.6336857 -5.61718914 -0.02255899 0 0 Z " fill="#040404" transform="translate(249.9375,181.6875)"/>
<path d="M0 0 C-0.57860373 3.94438397 -1.7767682 6.6854951 -3.875 10.0625 C-4.38804687 10.89910156 -4.90109375 11.73570312 -5.4296875 12.59765625 C-6.87283408 14.80545512 -8.38953063 16.91217594 -10 19 C-9.01 19.33 -8.02 19.66 -7 20 C-7.99 20.99 -8.98 21.98 -10 23 C-12.5 21.6875 -12.5 21.6875 -15 20 C-15 19.01 -15 18.02 -15 17 C-15.66 17 -16.32 17 -17 17 C-19.60018816 13.09971775 -19.15085514 9.52565431 -19 5 C-18.40832031 4.80664062 -17.81664062 4.61328125 -17.20703125 4.4140625 C-12.17326681 2.76184084 -12.17326681 2.76184084 -7.25 0.8125 C-4.70852877 -0.1052535 -2.68176217 -0.15324355 0 0 Z " fill="#F2F2F2" transform="translate(253,121)"/>
<path d="M0 0 C1.55074219 -0.03867188 1.55074219 -0.03867188 3.1328125 -0.078125 C5.875 0.25 5.875 0.25 7.7421875 1.765625 C8.11601562 2.25546875 8.48984375 2.7453125 8.875 3.25 C7.48087891 3.73919922 7.48087891 3.73919922 6.05859375 4.23828125 C-1.68450435 6.92390004 -1.68450435 6.92390004 -9.25 10.0625 C-12.125 11.25 -12.125 11.25 -16.125 11.25 C-16.125 10.59 -16.125 9.93 -16.125 9.25 C-14.475 8.59 -12.825 7.93 -11.125 7.25 C-11.77726562 7.38277344 -12.42953125 7.51554687 -13.1015625 7.65234375 C-17.7658287 8.59482822 -22.42368454 9.50768703 -27.125 10.25 C-27.455 9.26 -27.785 8.27 -28.125 7.25 C-25.39729834 6.26658385 -22.66797895 5.28814947 -19.9375 4.3125 C-19.16857422 4.03470703 -18.39964844 3.75691406 -17.60742188 3.47070312 C-11.64449783 1.34657138 -6.37332388 0.09583946 0 0 Z " fill="#121212" transform="translate(214.125,119.75)"/>
<path d="M0 0 C0.66 0.99 1.32 1.98 2 3 C1.67 3.99 1.34 4.98 1 6 C0.01 5.01 -0.98 4.02 -2 3 C-2.84527244 6.98485578 -3.6171896 10.9422098 -4 15 C-3.34 15.66 -2.68 16.32 -2 17 C-6.95 17 -11.9 17 -17 17 C-15.38590142 13.77180284 -13.75165322 10.56419006 -12.0625 7.375 C-11.55847656 6.41335937 -11.05445313 5.45171875 -10.53515625 4.4609375 C-7.75190378 -0.00076494 -5.00293062 -0.53222666 0 0 Z " fill="#0C0C0C" transform="translate(261,122)"/>
<path d="M0 0 C0.33 0.99 0.66 1.98 1 3 C-2.96 4.98 -2.96 4.98 -7 7 C-7.33 14.59 -7.66 22.18 -8 30 C-9.32 30 -10.64 30 -12 30 C-15.33669845 11.85670219 -15.33669845 11.85670219 -11.5546875 4.734375 C-8.56257617 1.39644176 -4.26564677 0.78149254 0 0 Z " fill="#282828" transform="translate(243,308)"/>
<path d="M0 0 C2.89640118 -0.08120751 5.79050912 -0.14059421 8.6875 -0.1875 C9.50412109 -0.21263672 10.32074219 -0.23777344 11.16210938 -0.26367188 C15.91345221 -0.32138049 19.21016393 -0.21184949 23 3 C24.07136051 5.30144109 25.07989717 7.6340213 26 10 C26.66 10.33 27.32 10.66 28 11 C28 12.98 28 14.96 28 17 C25.6875 17.25 25.6875 17.25 23 17 C20.06496461 14.17366963 19.18923372 10.82253695 18 7 C16.26043342 5.26043342 13.8063378 5.62809614 11.4375 5.4375 C10.42558594 5.35371094 9.41367188 5.26992187 8.37109375 5.18359375 C7.19740234 5.09271484 7.19740234 5.09271484 6 5 C6 4.67 6 4.34 6 4 C8.97 4 11.94 4 15 4 C15 3.34 15 2.68 15 2 C10.05 1.67 5.1 1.34 0 1 C0 0.67 0 0.34 0 0 Z " fill="#222222" transform="translate(241,182)"/>
<path d="M0 0 C1.18956883 4.15226856 0.78960563 6.38725993 -0.9375 10.3125 C-1.31777344 11.19550781 -1.69804687 12.07851562 -2.08984375 12.98828125 C-2.39019531 13.65214844 -2.69054687 14.31601563 -3 15 C-3.66 15 -4.32 15 -5 15 C-6.54296875 12.91796875 -6.54296875 12.91796875 -8.1875 10.1875 C-8.73792969 9.29417969 -9.28835937 8.40085937 -9.85546875 7.48046875 C-11 5 -11 5 -10 2 C-9.34 1.67 -8.68 1.34 -8 1 C-11.3 0.67 -14.6 0.34 -18 0 C-18 -0.33 -18 -0.66 -18 -1 C-16.25093341 -1.19601608 -14.50068154 -1.38147403 -12.75 -1.5625 C-11.77546875 -1.66691406 -10.8009375 -1.77132812 -9.796875 -1.87890625 C-6.09530898 -2.03916958 -3.4876481 -1.16254937 0 0 Z " fill="#EAEAEA" transform="translate(264,93)"/>
<path d="M0 0 C0.66 0.33 1.32 0.66 2 1 C1.030625 1.556875 0.06125 2.11375 -0.9375 2.6875 C-4.42836944 5.32346264 -4.37425102 5.93263166 -5 10 C-7 11.5 -7 11.5 -9 13 C-9.8042208 15.59855733 -9.8042208 15.59855733 -10 18 C-14.455 17.01 -14.455 17.01 -19 16 C-14.62352766 7.24705532 -9.15055239 3.47369566 0 0 Z " fill="#171717" transform="translate(363,287)"/>
<path d="M0 0 C-0.495 0.4125 -0.99 0.825 -1.5 1.25 C-3.43386092 3.12202338 -3.43386092 3.12202338 -3 7 C-3.66 7 -4.32 7 -5 7 C-5 8.65 -5 10.3 -5 12 C-5.99 12 -6.98 12 -8 12 C-9.75390625 10.1015625 -9.75390625 10.1015625 -11.5625 7.625 C-13.30630755 5.26242203 -14.92249804 3.07750196 -17 1 C-15.10440036 0.83069605 -13.20850769 0.66467136 -11.3125 0.5 C-10.25675781 0.4071875 -9.20101562 0.314375 -8.11328125 0.21875 C-5.39363975 0.0276585 -2.72460144 -0.04043935 0 0 Z " fill="#0C0C0C" transform="translate(257,93)"/>
<path d="M0 0 C3.64567304 1.21522435 4.48567022 2.84583354 6.28125 6.14453125 C7.27367377 8.70649479 6.92470627 10.45705775 6 13 C3.36 13 0.72 13 -2 13 C-3.71050559 8.02398374 -2.00885647 4.57383705 0 0 Z " fill="#F2F2F2" transform="translate(259,125)"/>
<path d="M0 0 C0.845625 0.45375 1.69125 0.9075 2.5625 1.375 C3.655625 1.91125 4.74875 2.4475 5.875 3 C6.761875 3.45375 7.64875 3.9075 8.5625 4.375 C8.2325 5.365 7.9025 6.355 7.5625 7.375 C7.41757877 8.78164926 7.31621069 10.1931133 7.24609375 11.60546875 C7.20419922 12.40791016 7.16230469 13.21035156 7.11914062 14.03710938 C7.06016602 15.28717773 7.06016602 15.28717773 7 16.5625 C6.95681641 17.40748047 6.91363281 18.25246094 6.86914062 19.12304688 C6.76318482 21.20684433 6.6623498 23.29090103 6.5625 25.375 C5.5725 25.375 4.5825 25.375 3.5625 25.375 C3.5625 18.445 3.5625 11.515 3.5625 4.375 C-0.3975 4.375 -4.3575 4.375 -8.4375 4.375 C-6.6733047 0.8466094 -3.89936731 -0.99983777 0 0 Z " fill="#353535" transform="translate(282.4375,312.625)"/>
<path d="M0 0 C0.33 0 0.66 0 1 0 C1.50581854 3.39499304 2.00362244 6.79111482 2.5 10.1875 C2.64308594 11.14720703 2.78617187 12.10691406 2.93359375 13.09570312 C3.06894531 14.02705078 3.20429688 14.95839844 3.34375 15.91796875 C3.46943359 16.77156982 3.59511719 17.6251709 3.72460938 18.50463867 C4.00272556 21.02469675 4.047608 23.46685782 4 26 C1.87491756 22.81237635 1.4979837 20.73487777 1 17 C-0.14077657 20.42232972 -0.09815117 23.08673217 -0.0625 26.6875 C-0.04896484 28.45673828 -0.04896484 28.45673828 -0.03515625 30.26171875 C-0.02355469 31.16535156 -0.01195312 32.06898438 0 33 C-0.33 33 -0.66 33 -1 33 C-1.39228903 28.70972794 -1.76090295 24.41774919 -2.125 20.125 C-2.23714844 18.90167969 -2.34929687 17.67835938 -2.46484375 16.41796875 C-2.60986328 14.66806641 -2.60986328 14.66806641 -2.7578125 12.8828125 C-2.89920654 11.26463623 -2.89920654 11.26463623 -3.04345703 9.61376953 C-3 7 -3 7 -1 5 C-0.35232207 2.42938689 -0.35232207 2.42938689 0 0 Z " fill="#D3D3D3" transform="translate(386,183)"/>
<path d="M0 0 C1.32 0.66 2.64 1.32 4 2 C3.34 4.97 2.68 7.94 2 11 C1.34 10.34 0.68 9.68 0 9 C-0.99 9.33 -1.98 9.66 -3 10 C-3.33 12.64 -3.66 15.28 -4 18 C-5.32 18 -6.64 18 -8 18 C-8 15.03 -8 12.06 -8 9 C-7.67 9 -7.34 9 -7 9 C-7 11.64 -7 14.28 -7 17 C-6.34 17 -5.68 17 -5 17 C-5.0825 15.845 -5.165 14.69 -5.25 13.5 C-5.27604655 8.6292957 -3.53385113 5.0806197 -1 1 C-0.67 0.67 -0.34 0.34 0 0 Z " fill="#DADADA" transform="translate(302,375)"/>
<path d="M0 0 C1.47906892 -0.02689216 2.95827483 -0.04634621 4.4375 -0.0625 C5.26121094 -0.07410156 6.08492188 -0.08570313 6.93359375 -0.09765625 C9 0 9 0 10 1 C10.04063832 2.66617115 10.042721 4.33388095 10 6 C6.57067929 7.71466036 2.78283935 7.05404056 -1 7 C-1 10.96 -1 14.92 -1 19 C-1.33 19 -1.66 19 -2 19 C-2 14.71 -2 10.42 -2 6 C-0.35 5.67 1.3 5.34 3 5 C2.2236068 1.9254644 2.2236068 1.9254644 0 0 Z " fill="#D5D5D5" transform="translate(390,209)"/>
<path d="M0 0 C1.32 0.33 2.64 0.66 4 1 C4.39063507 2.43333021 4.76198474 3.87192679 5.125 5.3125 C5.33382812 6.11300781 5.54265625 6.91351563 5.7578125 7.73828125 C6 10 6 10 4 13 C1.69 12.67 -0.62 12.34 -3 12 C-2.67 11.01 -2.34 10.02 -2 9 C-1.01 9 -0.02 9 1 9 C0.67 8.67 0.34 8.34 0 8 C-0.14115161 5.32941149 -0.04247107 2.67567762 0 0 Z " fill="#DBDBDB" transform="translate(189,368)"/>
<path d="M0 0 C0.99 0.66 1.98 1.32 3 2 C2.31238981 5.65564909 0.74550455 8.51867272 -1.0625 11.75 C-1.61035156 12.73484375 -2.15820312 13.7196875 -2.72265625 14.734375 C-3.14417969 15.48203125 -3.56570313 16.2296875 -4 17 C-4.99 15.68 -5.98 14.36 -7 13 C-5.54331217 10.03216871 -3.98767914 7.13584687 -2.375 4.25 C-1.92898438 3.45078125 -1.48296875 2.6515625 -1.0234375 1.828125 C-0.68570312 1.22484375 -0.34796875 0.6215625 0 0 Z " fill="#E6E6E6" transform="translate(383,235)"/>
<path d="M0 0 C1.75354196 3.39128398 3.28693399 6.84884654 4.75 10.375 C5.21921875 11.47585937 5.6884375 12.57671875 6.171875 13.7109375 C7.14321462 17.56880523 6.58232522 19.41267364 5 23 C4.67 23 4.34 23 4 23 C3.28734247 20.86202741 2.57652165 18.72369591 1.875 16.58203125 C1.30523241 14.90070815 0.70245395 13.23009961 0.0625 11.57421875 C-2.17052469 5.64274691 -2.17052469 5.64274691 -1.1875 1.9375 C-0.795625 1.298125 -0.40375 0.65875 0 0 Z " fill="#DBDBDB" transform="translate(116,229)"/>
<path d="M0 0 C-0.33 4.95 -0.66 9.9 -1 15 C-2.32 14.34 -3.64 13.68 -5 13 C-5.609375 9.9609375 -5.609375 9.9609375 -5.75 6.375 C-5.80671875 5.18648438 -5.8634375 3.99796875 -5.921875 2.7734375 C-5.94765625 1.85820312 -5.9734375 0.94296875 -6 0 C-3 -1 -3 -1 0 0 Z " fill="#121212" transform="translate(214,387)"/>
<path d="M0 0 C2.31 0 4.62 0 7 0 C5.78310457 4.02511566 4.50546238 7.59257117 2 11 C1.01 11 0.02 11 -1 11 C-1.0270043 9.54176788 -1.04639787 8.08339325 -1.0625 6.625 C-1.07410156 5.81289063 -1.08570313 5.00078125 -1.09765625 4.1640625 C-1 2 -1 2 0 0 Z " fill="#F0F0F0" transform="translate(226,393)"/>
<path d="M0 0 C0.33 1.32 0.66 2.64 1 4 C0.34 4 -0.32 4 -1 4 C-1 4.99 -1 5.98 -1 7 C-0.01 7 0.98 7 2 7 C1.69381595 10.67420866 1.24228216 11.78135513 -1.5625 14.3125 C-2.366875 14.869375 -3.17125 15.42625 -4 16 C-4 14.35 -4 12.7 -4 11 C-4.66 10.67 -5.32 10.34 -6 10 C-4.93222008 7.86444017 -3.70872563 5.89592279 -2.4375 3.875 C-1.98246094 3.15054688 -1.52742187 2.42609375 -1.05859375 1.6796875 C-0.70925781 1.12539062 -0.35992187 0.57109375 0 0 Z " fill="#212121" transform="translate(237,184)"/>
<path d="M0 0 C0.22181406 2.43695715 0.42791119 4.873526 0.625 7.3125 C0.68945312 8.00279297 0.75390625 8.69308594 0.8203125 9.40429688 C1.11802847 13.2559972 1.20763723 14.68854416 -1 18 C-1.30744141 16.82630859 -1.30744141 16.82630859 -1.62109375 15.62890625 C-1.89050781 14.61699219 -2.15992188 13.60507812 -2.4375 12.5625 C-2.83775391 11.04849609 -2.83775391 11.04849609 -3.24609375 9.50390625 C-3.75978077 7.08247999 -3.75978077 7.08247999 -5 6 C-5.04063832 4.33382885 -5.042721 2.66611905 -5 1 C-1.125 0 -1.125 0 0 0 Z " fill="#191919" transform="translate(207,317)"/>
<path d="M0 0 C0.90105469 0.01804687 1.80210937 0.03609375 2.73046875 0.0546875 C3.41753906 0.07789062 4.10460937 0.10109375 4.8125 0.125 C2.23465154 2.77252004 -0.10398098 5.06932065 -3.1875 7.125 C-5.875 6.25 -5.875 6.25 -8.1875 5.125 C-8.1875 4.135 -8.1875 3.145 -8.1875 2.125 C-4.87379 -0.08414 -3.8428979 -0.09981553 0 0 Z " fill="#0C0C0C" transform="translate(274.1875,92.875)"/>
<path d="M0 0 C0.05399736 1.45792884 0.09279177 2.91642712 0.125 4.375 C0.14820313 5.18710937 0.17140625 5.99921875 0.1953125 6.8359375 C0 9 0 9 -2 11 C-2.99 11.33 -3.98 11.66 -5 12 C-5.08131463 10.56344146 -5.13933559 9.1255517 -5.1875 7.6875 C-5.22230469 6.88699219 -5.25710938 6.08648437 -5.29296875 5.26171875 C-5 3 -5 3 -3.61328125 1.20703125 C-2 0 -2 0 0 0 Z " fill="#F9F9F9" transform="translate(317,372)"/>
<path d="M0 0 C0.66 1.32 1.32 2.64 2 4 C1.01 4.33 0.02 4.66 -1 5 C-1.61964838 7.04914454 -1.61964838 7.04914454 -1.875 9.4375 C-2.3359375 11.90234375 -2.3359375 11.90234375 -3 14 C-5.5 15.5 -5.5 15.5 -8 16 C-8.66 16.33 -9.32 16.66 -10 17 C-8.51364884 12.78345644 -6.38750841 9.37521395 -3.875 5.6875 C-3.15054687 4.61886719 -2.42609375 3.55023438 -1.6796875 2.44921875 C-0.84824219 1.23685547 -0.84824219 1.23685547 0 0 Z " fill="#1D1D1D" transform="translate(353,336)"/>
<path d="M0 0 C4.70588235 0.70588235 4.70588235 0.70588235 6 2 C6.04063832 3.66617115 6.042721 5.33388095 6 7 C5.01 7.33 4.02 7.66 3 8 C2.01 7.01 1.02 6.02 0 5 C-0.99 5.33 -1.98 5.66 -3 6 C-1.125 1.125 -1.125 1.125 0 0 Z " fill="#EDEDED" transform="translate(279,389)"/>
<path d="M0 0 C0.33 0 0.66 0 1 0 C1.22786458 2.05078125 1.45572917 4.1015625 1.68359375 6.15234375 C1.81886614 8.01140229 1.81886614 8.01140229 3 9 C3.26247139 13.54950416 2.99544337 16.88439805 1 21 C0.34 20.67 -0.32 20.34 -1 20 C-0.67 13.4 -0.34 6.8 0 0 Z " fill="#EEEEEE" transform="translate(385,216)"/>
<path d="M0 0 C1.98 0.66 3.96 1.32 6 2 C6 3.98 6 5.96 6 8 C3.625 8.1875 3.625 8.1875 1 8 C-1 5 -1 5 -0.625 2.3125 C-0.41875 1.549375 -0.2125 0.78625 0 0 Z " fill="#151515" transform="translate(263,191)"/>
<path d="M0 0 C-0.75 6.625 -0.75 6.625 -3 10 C-7 3.25 -7 3.25 -7 1 C-4.50935112 0.31292445 -2.62113708 0 0 0 Z " fill="#282828" transform="translate(221,311)"/>
<path d="M0 0 C0.33 0 0.66 0 1 0 C1.04898437 1.12019531 1.09796875 2.24039062 1.1484375 3.39453125 C1.22347856 4.86721203 1.29902582 6.33986707 1.375 7.8125 C1.4059375 8.55048828 1.436875 9.28847656 1.46875 10.04882812 C1.67346148 13.81893115 1.86433827 15.79650741 4 19 C2.68 19 1.36 19 0 19 C-0.33 19.99 -0.66 20.98 -1 22 C-2.98 21.67 -4.96 21.34 -7 21 C-6.38125 20.731875 -5.7625 20.46375 -5.125 20.1875 C-2.7004767 19.04443152 -2.7004767 19.04443152 -1 16 C-0.69933846 13.24582682 -0.49074701 10.57354853 -0.375 7.8125 C-0.33632813 7.06291016 -0.29765625 6.31332031 -0.2578125 5.54101562 C-0.16371784 3.69440801 -0.08077681 1.8472381 0 0 Z " fill="#141414" transform="translate(287,322)"/>
<path d="M0 0 C0.99 0.33 1.98 0.66 3 1 C1.75482035 2.13033298 0.50363348 3.25405036 -0.75 4.375 C-1.44609375 5.00148437 -2.1421875 5.62796875 -2.859375 6.2734375 C-4.85672418 7.88443812 -6.67093742 8.95290044 -9 10 C-9.99 10.495 -9.99 10.495 -11 11 C-9.63310446 7.84930578 -8.14342115 5.99108226 -5.5 3.8125 C-4.8915625 3.30332031 -4.283125 2.79414063 -3.65625 2.26953125 C-2 1 -2 1 0 0 Z " fill="#242424" transform="translate(284,174)"/>
<path d="M0 0 C-1 3 -1 3 -3.0625 4.1875 C-3.701875 4.455625 -4.34125 4.72375 -5 5 C-5 6.98 -5 8.96 -5 11 C-5.66 11 -6.32 11 -7 11 C-8.52150158 7.95699684 -8.23899393 5.345915 -8 2 C-4.77208445 -0.1519437 -3.71599191 -0.20086443 0 0 Z " fill="#DFDFDF" transform="translate(293,381)"/>
<path d="M0 0 C9.41002278 0.96355353 9.41002278 0.96355353 14 2 C13.67 2.66 13.34 3.32 13 4 C9.83984375 4.4140625 9.83984375 4.4140625 5.9375 4.625 C4.64714844 4.69976562 3.35679687 4.77453125 2.02734375 4.8515625 C1.02832031 4.90054687 0.02929688 4.94953125 -1 5 C-0.67 3.35 -0.34 1.7 0 0 Z " fill="#E9E9E9" transform="translate(252,305)"/>
<path d="M0 0 C1.32 0.66 2.64 1.32 4 2 C4 2.66 4 3.32 4 4 C4.99 4.33 5.98 4.66 7 5 C5.75 6.5625 5.75 6.5625 4 8 C1.9375 8 1.9375 8 0 7 C-1.25 4.4375 -1.25 4.4375 -2 2 C-1.34 1.34 -0.68 0.68 0 0 Z " fill="#F9F9F9" transform="translate(218,136)"/>
<path d="M0 0 C0.66 0 1.32 0 2 0 C2 4.29 2 8.58 2 13 C1.01 13 0.02 13 -1 13 C-1.02708567 11.39592672 -1.04643483 9.7917215 -1.0625 8.1875 C-1.07410156 7.29417969 -1.08570313 6.40085937 -1.09765625 5.48046875 C-1 3 -1 3 0 0 Z " fill="#262626" transform="translate(237,398)"/>
<path d="M0 0 C0.33 0 0.66 0 1 0 C1.05790353 3.29159316 1.09356261 6.58305603 1.125 9.875 C1.14175781 10.81214844 1.15851563 11.74929688 1.17578125 12.71484375 C1.18222656 13.61074219 1.18867188 14.50664062 1.1953125 15.4296875 C1.20578613 16.25710449 1.21625977 17.08452148 1.22705078 17.93701172 C1 20 1 20 -1 22 C-3.625 22.125 -3.625 22.125 -6 22 C-4.71937515 20.2925002 -3.38232443 18.62626404 -2 17 C-1.34 17 -0.68 17 0 17 C0 11.39 0 5.78 0 0 Z " fill="#E9E9E9" transform="translate(285,320)"/>
<path d="M0 0 C0.99 0.66 1.98 1.32 3 2 C2.34 2.61875 1.68 3.2375 1 3.875 C-1.2284549 5.75637427 -1.2284549 5.75637427 -1 8 C-3.5 9.5 -3.5 9.5 -6 11 C-7.7041054 12.62836738 -9.38025441 14.28769752 -11 16 C-11.66 15.67 -12.32 15.34 -13 15 C-12.39671875 14.41992188 -11.7934375 13.83984375 -11.171875 13.2421875 C-6.90045332 9.06721727 -3.03995788 5.1547112 0 0 Z " fill="#1C1C1C" transform="translate(347,397)"/>
<path d="M0 0 C0.33 0 0.66 0 1 0 C1 4.29 1 8.58 1 13 C0.01 13.495 0.01 13.495 -1 14 C-2.29243536 9.8803623 -3.26252625 6.33168317 -3 2 C-2.34 2.66 -1.68 3.32 -1 4 C-0.67 2.68 -0.34 1.36 0 0 Z " fill="#EAEAEA" transform="translate(115,220)"/>
<path d="M0 0 C1.32 0.99 2.64 1.98 4 3 C4.171875 5.26171875 4.171875 5.26171875 3.75 7.6875 C3.62109375 8.49574219 3.4921875 9.30398438 3.359375 10.13671875 C3.18148438 11.05904297 3.18148438 11.05904297 3 12 C2.01 11.67 1.02 11.34 0 11 C0 7.37 0 3.74 0 0 Z " fill="#3B3B3B" transform="translate(272,392)"/>
<path d="M0 0 C0.66 0 1.32 0 2 0 C3.2890625 1.64453125 3.2890625 1.64453125 4.625 3.8125 C5.07101562 4.52019531 5.51703125 5.22789062 5.9765625 5.95703125 C7 8 7 8 7 11 C5.35 10.67 3.7 10.34 2 10 C1.855625 8.906875 1.71125 7.81375 1.5625 6.6875 C1.11711896 3.06877013 1.11711896 3.06877013 0 0 Z " fill="#1E1E1E" transform="translate(283,388)"/>
<path d="M0 0 C-0.66 4.29 -1.32 8.58 -2 13 C-2.66 13 -3.32 13 -4 13 C-4.2493357 11.39884424 -4.47378648 9.79379841 -4.6875 8.1875 C-4.81511719 7.29417969 -4.94273437 6.40085937 -5.07421875 5.48046875 C-5 3 -5 3 -3.64453125 1.17578125 C-2 0 -2 0 0 0 Z " fill="#121212" transform="translate(299,379)"/>
<path d="M0 0 C0.66 0.33 1.32 0.66 2 1 C2 4.96 2 8.92 2 13 C1.01 13 0.02 13 -1 13 C-0.67 8.71 -0.34 4.42 0 0 Z " fill="#161616" transform="translate(256,396)"/>
<path d="M0 0 C3.37462715 0.54723683 5.08235 1.0549 8 3 C8.6875 5.625 8.6875 5.625 9 8 C8.34 8 7.68 8 7 8 C7 7.34 7 6.68 7 6 C6.34 5.67 5.68 5.34 5 5 C3 4 1 3 -1 2 C-0.67 1.34 -0.34 0.68 0 0 Z " fill="#E5E5E5" transform="translate(199,381)"/>
<path d="M0 0 C3.465 1.98 3.465 1.98 7 4 C6.01 4.495 6.01 4.495 5 5 C5 7.97 5 10.94 5 14 C4.67 14 4.34 14 4 14 C3.67 11.03 3.34 8.06 3 5 C0.525 4.01 0.525 4.01 -2 3 C-1.34 2.01 -0.68 1.02 0 0 Z " fill="#303030" transform="translate(266,309)"/>
<path d="M0 0 C0.33 0.66 0.66 1.32 1 2 C1.66 2.33 2.32 2.66 3 3 C3 3.66 3 4.32 3 5 C1.02 5.33 -0.96 5.66 -3 6 C-3 5.34 -3 4.68 -3 4 C-5.97 3.67 -8.94 3.34 -12 3 C-12 2.67 -12 2.34 -12 2 C-11.21753906 1.93941406 -10.43507812 1.87882812 -9.62890625 1.81640625 C-8.61699219 1.73261719 -7.60507813 1.64882813 -6.5625 1.5625 C-5.55316406 1.48128906 -4.54382813 1.40007812 -3.50390625 1.31640625 C-1.06359221 1.26788532 -1.06359221 1.26788532 0 0 Z " fill="#292929" transform="translate(250,337)"/>
<path d="M0 0 C0.33 1.32 0.66 2.64 1 4 C-0.98 4.99 -0.98 4.99 -3 6 C-2.67 7.32 -2.34 8.64 -2 10 C-3.98 10.99 -3.98 10.99 -6 12 C-5.67 11.01 -5.34 10.02 -5 9 C-5.0825 8.195625 -5.165 7.39125 -5.25 6.5625 C-5 4 -5 4 -2.5 1.6875 C-1.2625 0.8521875 -1.2625 0.8521875 0 0 Z " fill="#EAEAEA" transform="translate(358,296)"/>
<path d="M0 0 C0.33 0.66 0.66 1.32 1 2 C1.66 2.33 2.32 2.66 3 3 C2.34 3 1.68 3 1 3 C1 5.31 1 7.62 1 10 C-0.98 10.99 -0.98 10.99 -3 12 C-2.49202991 7.6822542 -1.80317221 3.96697886 0 0 Z " fill="#D4D4D4" transform="translate(333,337)"/>
<path d="M0 0 C2.875 -0.125 2.875 -0.125 6 0 C6.66 0.66 7.32 1.32 8 2 C6.2984375 2.433125 6.2984375 2.433125 4.5625 2.875 C3.386875 3.24625 2.21125 3.6175 1 4 C0.67 4.66 0.34 5.32 0 6 C-0.99 6 -1.98 6 -3 6 C-3 5.01 -3 4.02 -3 3 C-2.34 3 -1.68 3 -1 3 C-0.67 2.01 -0.34 1.02 0 0 Z " fill="#0A0A0A" transform="translate(239,185)"/>
<path d="M0 0 C1.9375 0.6875 1.9375 0.6875 2.9375 2.6875 C1.9475 3.6775 0.9575 4.6675 -0.0625 5.6875 C-2.0625 4.6875 -2.0625 4.6875 -3.0625 2.6875 C-4.0525 3.1825 -4.0525 3.1825 -5.0625 3.6875 C-4.7325 2.6975 -4.4025 1.7075 -4.0625 0.6875 C-2.0625 -0.3125 -2.0625 -0.3125 0 0 Z " fill="#DFDFDF" transform="translate(252.0625,265.3125)"/>
<path d="M0 0 C0.66 0.33 1.32 0.66 2 1 C1.525625 1.598125 1.05125 2.19625 0.5625 2.8125 C-1.16465744 5.00382924 -1.16465744 5.00382924 -2 8 C-2.99 8 -3.98 8 -5 8 C-5 8.66 -5 9.32 -5 10 C-5.66 10 -6.32 10 -7 10 C-5.6062718 5.56541027 -3.39417765 3.12621626 0 0 Z " fill="#DEDEDE" transform="translate(276,95)"/>
<path d="M0 0 C3.16115776 1.36983503 3.9927092 1.9890638 6 5 C4.35 5.33 2.7 5.66 1 6 C0.01 4.68 -0.98 3.36 -2 2 C-1.34 1.34 -0.68 0.68 0 0 Z " fill="#131313" transform="translate(258,266)"/>
<path d="M0 0 C-0.33 1.32 -0.66 2.64 -1 4 C-1.66 4 -2.32 4 -3 4 C-3.99 5.485 -3.99 5.485 -5 7 C-5.66 4.69 -6.32 2.38 -7 0 C-3.98968256 -0.93423645 -3.13349732 -1.04449911 0 0 Z " fill="#2D2D2D" transform="translate(266,188)"/>
<path d="M0 0 C-2 3 -2 3 -5.125 3.6875 C-6.07375 3.790625 -7.0225 3.89375 -8 4 C-8.33 3.01 -8.66 2.02 -9 1 C-3.375 -1.125 -3.375 -1.125 0 0 Z " fill="#2E2E2E" transform="translate(195,126)"/>
<path d="M0 0 C0.66 2.31 1.32 4.62 2 7 C0.68 7 -0.64 7 -2 7 C-4.25 4.5 -4.25 4.5 -6 2 C-1.125 0 -1.125 0 0 0 Z " fill="#191919" transform="translate(356,91)"/>
<path d="M0 0 C0.99 0.33 1.98 0.66 3 1 C-3.28571429 6.42857143 -3.28571429 6.42857143 -7 8 C-7.66 7.34 -8.32 6.68 -9 6 C-7.57140593 4.96674014 -6.13177617 3.94872366 -4.6875 2.9375 C-3.88699219 2.36902344 -3.08648437 1.80054688 -2.26171875 1.21484375 C-1.51535156 0.81394531 -0.76898438 0.41304687 0 0 Z " fill="#DCDCDC" transform="translate(199,253)"/>
<path d="M0 0 C-2 2 -2 2 -4.5625 2.5 C-5.366875 2.665 -6.17125 2.83 -7 3 C-7.33 3.66 -7.66 4.32 -8 5 C-8 4.34 -8 3.68 -8 3 C-10.31 3.33 -12.62 3.66 -15 4 C-10.34714182 0.89809455 -5.58467324 -0.33846504 0 0 Z " fill="#A1A1A1" transform="translate(205,126)"/>
<path d="M0 0 C1.2077558 3.62326739 0.54311128 4.64146369 -1 8 C-1.66 7.67 -2.32 7.34 -3 7 C-3.625 3.9375 -3.625 3.9375 -4 1 C-2 0 -2 0 0 0 Z " fill="#E2E2E2" transform="translate(234,185)"/>
<path d="M0 0 C-0.75 4.75 -0.75 4.75 -3 7 C-3.33 6.01 -3.66 5.02 -4 4 C-3.67 3.34 -3.34 2.68 -3 2 C-4.65 2 -6.3 2 -8 2 C-4.77208445 -0.1519437 -3.71599191 -0.20086443 0 0 Z " fill="#CFCFCF" transform="translate(253,121)"/>
<path d="M0 0 C0.66 1.32 1.32 2.64 2 4 C1.01 4 0.02 4 -1 4 C-1.33 4.66 -1.66 5.32 -2 6 C-2.66 6.66 -3.32 7.32 -4 8 C-4.99 7.67 -5.98 7.34 -7 7 C-6.21625 6.401875 -5.4325 5.80375 -4.625 5.1875 C-1.85425677 3.08914751 -1.85425677 3.08914751 0 0 Z " fill="#DCDCDC" transform="translate(370,254)"/>
<path d="M0 0 C0.99 0.66 1.98 1.32 3 2 C2.42655063 4.86724686 2.1385485 5.8614515 0 8 C-0.33 7.34 -0.66 6.68 -1 6 C-1.66 5.67 -2.32 5.34 -3 5 C-2.01 3.35 -1.02 1.7 0 0 Z " fill="#DBDBDB" transform="translate(383,235)"/>
<path d="M0 0 C1.65 0 3.3 0 5 0 C5 0.66 5 1.32 5 2 C5.99 2.33 6.98 2.66 8 3 C7.01 3.99 6.02 4.98 5 6 C2.5 4.6875 2.5 4.6875 0 3 C0 2.01 0 1.02 0 0 Z " fill="#DDDDDD" transform="translate(238,138)"/>
<path d="M0 0 C1.67542976 0.28604898 3.34385343 0.61781233 5 1 C4.38125 1.0825 3.7625 1.165 3.125 1.25 C0.81562433 1.81258459 0.81562433 1.81258459 -0.25 4.0625 C-0.4975 4.701875 -0.745 5.34125 -1 6 C-1.66 6 -2.32 6 -3 6 C-1.125 1.125 -1.125 1.125 0 0 Z " fill="#D4D4D4" transform="translate(279,389)"/>
<path d="M0 0 C0.66 0 1.32 0 2 0 C2 2.64 2 5.28 2 8 C1.01 8.495 1.01 8.495 0 9 C-0.33 7.68 -0.66 6.36 -1 5 C-0.34 5 0.32 5 1 5 C1 4.34 1 3.68 1 3 C-0.98 3.99 -0.98 3.99 -3 5 C-1.125 1.125 -1.125 1.125 0 0 Z " fill="#EAEAEA" transform="translate(315,372)"/>
<path d="M0 0 C2.05078125 0.03255208 4.1015625 0.06510417 6.15234375 0.09765625 C3.51330004 1.51142966 1.08113746 2.4700576 -1.84765625 3.09765625 C-1.84765625 4.74765625 -1.84765625 6.39765625 -1.84765625 8.09765625 C-2.17765625 8.09765625 -2.50765625 8.09765625 -2.84765625 8.09765625 C-2.89007348 5.7647085 -2.88858562 3.43063058 -2.84765625 1.09765625 C-1.84765625 0.09765625 -1.84765625 0.09765625 0 0 Z " fill="#CCCCCC" transform="translate(277.84765625,315.90234375)"/>
<path d="M0 0 C0 0.99 0 1.98 0 3 C-2.8125 3.6875 -2.8125 3.6875 -6 4 C-7.875 2.5625 -7.875 2.5625 -9 1 C-5.8035914 -0.06546953 -3.34252724 -0.07427838 0 0 Z " fill="#212121" transform="translate(265,308)"/>
<path d="M0 0 C1.88391785 3.26545761 2.49287967 6.28111761 3 10 C2.67 9.01 2.34 8.02 2 7 C1.34 7 0.68 7 0 7 C-0.33 7.66 -0.66 8.32 -1 9 C-2.0326802 6.21176345 -2.04509293 5.1322726 -1.0625 2.25 C-0.711875 1.5075 -0.36125 0.765 0 0 Z " fill="#CFCFCF" transform="translate(116,229)"/>
<path d="M0 0 C1.32 1.32 2.64 2.64 4 4 C3.01 5.485 3.01 5.485 2 7 C0.35 5.68 -1.3 4.36 -3 3 C-2.01 2.01 -1.02 1.02 0 0 Z " fill="#F0F0F0" transform="translate(246,200)"/>
<path d="M0 0 C3 1 3 1 4.6875 4.0625 C5.120625 5.031875 5.55375 6.00125 6 7 C3.97954558 6.39816251 1.97888961 5.72693904 0 5 C-0.33 4.34 -0.66 3.68 -1 3 C-0.67 2.01 -0.34 1.02 0 0 Z " fill="#DADADA" transform="translate(259,125)"/>
<path d="M0 0 C0.66 0.33 1.32 0.66 2 1 C2 2.66666667 2 4.33333333 2 6 C1.01 6 0.02 6 -1 6 C-1.66 5.01 -2.32 4.02 -3 3 C-2.01 2.01 -1.02 1.02 0 0 Z " fill="#131313" transform="translate(309,432)"/>
<path d="M0 0 C0.99 1.485 0.99 1.485 2 3 C4.05925139 3.72382467 4.05925139 3.72382467 6 4 C5.67 4.99 5.34 5.98 5 7 C1.125 6.125 1.125 6.125 0 5 C-0.04063832 3.33382885 -0.042721 1.66611905 0 0 Z " fill="#E4E4E4" transform="translate(289,334)"/>
<path d="M0 0 C0.33 0 0.66 0 1 0 C1.22197585 2.10277123 1.42713637 4.20732302 1.625 6.3125 C1.74101562 7.48425781 1.85703125 8.65601563 1.9765625 9.86328125 C2 13 2 13 0 16 C-0.9360342 12.20732808 -0.98276252 9.06325435 -0.5625 5.1875 C-0.40974609 3.72376953 -0.40974609 3.72376953 -0.25390625 2.23046875 C-0.12822266 1.12638672 -0.12822266 1.12638672 0 0 Z " fill="#393939" transform="translate(132,311)"/>
<path d="M0 0 C2.97 0 5.94 0 9 0 C8.67 1.32 8.34 2.64 8 4 C5.33333333 2.66666667 2.66666667 1.33333333 0 0 Z " fill="#313131" transform="translate(102,216)"/>
<path d="M0 0 C0.93423645 3.01031744 1.04449911 3.86650268 0 7 C-1.32 7 -2.64 7 -4 7 C-2.92598892 4.08482708 -2.22189824 2.22189824 0 0 Z " fill="#151515" transform="translate(126,179)"/>
<path d="M0 0 C0.33 0 0.66 0 1 0 C1.29296875 6.0546875 1.29296875 6.0546875 1 8 C0.01 8.66 -0.98 9.32 -2 10 C-2 9.01 -2 8.02 -2 7 C-2.66 6.67 -3.32 6.34 -4 6 C-3.01 5.67 -2.02 5.34 -1 5 C-0.67 3.35 -0.34 1.7 0 0 Z " fill="#282828" transform="translate(311,376)"/>
<path d="M0 0 C0.66 0.99 1.32 1.98 2 3 C1.01 3.33 0.02 3.66 -1 4 C-1.33 4.66 -1.66 5.32 -2 6 C-4.97 5.67 -7.94 5.34 -11 5 C-11 4.67 -11 4.34 -11 4 C-10.37351562 3.96261719 -9.74703125 3.92523438 -9.1015625 3.88671875 C-8.28429687 3.82097656 -7.46703125 3.75523437 -6.625 3.6875 C-5.81289063 3.62949219 -5.00078125 3.57148438 -4.1640625 3.51171875 C-1.62078662 3.17009472 -1.62078662 3.17009472 0 0 Z " fill="#3C3C3C" transform="translate(315,337)"/>
<path d="M0 0 C0.33 1.32 0.66 2.64 1 4 C0.34 4 -0.32 4 -1 4 C-1.66 4.99 -2.32 5.98 -3 7 C-4 6 -4 6 -4.0625 3.4375 C-4.041875 2.633125 -4.02125 1.82875 -4 1 C-2.68 0.67 -1.36 0.34 0 0 Z " fill="#2D2D2D" transform="translate(206,317)"/>
<path d="M0 0 C0.33 0 0.66 0 1 0 C1.33 3.3 1.66 6.6 2 10 C-0.475 9.01 -0.475 9.01 -3 8 C-2.34 7.34 -1.68 6.68 -1 6 C-0.60235737 4.01178687 -0.26224651 2.01055661 0 0 Z " fill="#C2C2C2" transform="translate(376,255)"/>
<path d="M0 0 C3.63 0 7.26 0 11 0 C9.02 0.99 9.02 0.99 7 2 C6.01 2.66 5.02 3.32 4 4 C2.68 2.68 1.36 1.36 0 0 Z " fill="#D9D9D9" transform="translate(242,187)"/>
<path d="M0 0 C2.56616632 3.84924948 2.55097676 6.4349304 3 11 C2.731875 10.4225 2.46375 9.845 2.1875 9.25 C0.98280141 6.9674132 -0.40798115 5.0262058 -2 3 C-1.34 3 -0.68 3 0 3 C0 2.01 0 1.02 0 0 Z " fill="#D2D2D2" transform="translate(344,387)"/>
<path d="M0 0 C1.99097846 2.98646769 2.94124926 5.59687262 4 9 C3.34 9.66 2.68 10.32 2 11 C2 10.34 2 9.68 2 9 C1.34 9 0.68 9 0 9 C0 6.03 0 3.06 0 0 Z " fill="#D5D5D5" transform="translate(179,371)"/>
<path d="M0 0 C2.76390737 2.40339772 3.04065919 3.16263678 4 7 C1.36 6.01 -1.28 5.02 -4 4 C-2.68 2.68 -1.36 1.36 0 0 Z " fill="#151515" transform="translate(203,377)"/>
<path d="M0 0 C-0.99 0.99 -1.98 1.98 -3 3 C-6.875 1.25 -6.875 1.25 -8 -1 C-3.375 -2.25 -3.375 -2.25 0 0 Z " fill="#F3F3F3" transform="translate(233,179)"/>
<path d="M0 0 C0.33 0.66 0.66 1.32 1 2 C1.99 2.33 2.98 2.66 4 3 C3.01 3.99 2.02 4.98 1 6 C-0.32 5.34 -1.64 4.68 -3 4 C-2.01 2.68 -1.02 1.36 0 0 Z " fill="#EAEAEA" transform="translate(221,138)"/>
<path d="M0 0 C-3.06117568 2.62386487 -3.73173127 3 -8 3 C-8 2.34 -8 1.68 -8 1 C-3.375 -1.125 -3.375 -1.125 0 0 Z " fill="#242424" transform="translate(206,128)"/>
<path d="M0 0 C1.98 0.495 1.98 0.495 4 1 C2.84826645 3.46800047 1.95216435 5.04783565 0 7 C-1.125 2.25 -1.125 2.25 0 0 Z " fill="#161616" transform="translate(130,97)"/>
<path d="M0 0 C0.99 0 1.98 0 3 0 C3.33 1.32 3.66 2.64 4 4 C2.68 4.99 1.36 5.98 0 7 C-0.93423645 3.98968256 -1.04449911 3.13349732 0 0 Z " fill="#D5D5D5" transform="translate(306,383)"/>
<path d="M0 0 C0 0.99 0 1.98 0 3 C-2.26216255 4.54779543 -4.55224566 5.77612283 -7 7 C-5.54744301 3.17053157 -3.57104439 1.87949705 0 0 Z " fill="#161616" transform="translate(280,178)"/>
<path d="M0 0 C0.66 1.32 1.32 2.64 2 4 C0.625 5.5 0.625 5.5 -1 7 C-1.66 7 -2.32 7 -3 7 C-1.125 2.25 -1.125 2.25 0 0 Z " fill="#E0E0E0" transform="translate(109,161)"/>
<path d="M0 0 C3 3.875 3 3.875 3 5 C0.69 5 -1.62 5 -4 5 C-2.68 3.35 -1.36 1.7 0 0 Z " fill="#171717" transform="translate(234,134)"/>
</svg>
