<svg xmlns="http://www.w3.org/2000/svg" viewBox="90 40 320 410"><path fill="#fbfbfb" d="M280.402 51.93c2.846.846 5.427 1.385 8.336 1.86 6.058 1.173 11.114 3.799 16.512 6.71l3.058 1.627A160 160 0 0 1 331 77l3.64 2.785c9.574 7.37 18.627 14.88 26.36 24.215l1.86 2.094c4.444 5.191 8.006 10.74 11.39 16.656l1.25 2.126c6.996 12.615 8.266 25.85 9.188 39.936q.258 3.696.53 7.391.165 2.277.314 4.554c-.042 3.414-.042 3.414 1.468 6.243a85 85 0 0 1 .754 4.516l.4 2.793.409 2.941.42 2.895c.61 4.33 1.095 8.473 1.017 12.855l1.934-.035 2.503-.028 2.497-.035C399 209 399 209 400 210c.04 1.666.043 3.334 0 5-2.405 1.203-3.95 1.1-6.625 1.063l-2.477-.028L389 216l.105 2.203c.294 10.885-1.252 19.38-7.293 28.547-5.404 8.35-4.022 13.195-2.207 22.637.714 4.723.157 8.155-2.043 12.363-3.098 2.72-5.562 3.232-9.5 4.223-4.585 1.538-8.65 3.95-12.796 6.423-2.868 1.64-4.76 2.632-8.106 2.448-2.815-1.1-3.7-2.215-5.16-4.844-.364-1.66-.7-3.327-1-5-13.544 5.58-13.544 5.58-22 17l-1.125 3.5L317 308c-2.125.875-2.125.875-4 1l1 2.023c1.24 3.69 1.123 6.72 1 10.602-.34 5.549-.34 5.549 2 10.375-.21 2.742-.911 4.795-2 7.313-3.326 2.806-6.767 1.932-11 1.687v-10h-7l-2 9-4 1c-2.402-2.402-2.256-2.97-2.266-6.246l-.007-2.537.023-2.654-.023-2.643.007-2.541.007-2.326C289 320 289 320 291 317l-2.687-.875A140 140 0 0 1 280 313l-2 2c-3.683-.108-5.631-1.468-8.437-3.625-5.024-3.384-9.819-2.346-15.586-1.574L251 310l-2-2c-2.684.222-2.684.222-6 1l-2.547.344c-2.585.388-4.978.813-7.453 1.656-1.715 2.327-1.715 2.327-2 5l-1 3c-.192 4.509-.192 4.509.5 8.938.809 3.335.557 6.64.5 10.062-3.132 1.566-6.439 1.308-9.875 1.375l-2.184.113c-3.808.063-5.524-.09-8.324-2.761L209 334c-.6-.951-.6-.951-1.21-1.922-1.057-2.781-1.222-5.365-1.415-8.328l-.227-3.266L206 318h-4l.875 2.625L204 324l1.125 3.063c.848 2.847 1.128 4.99.875 7.937l-1 1h-8l-1 1c-1.666.04-3.334.043-5 0-4.933-7.355-6.465-12.918-6.187-21.625.615-10.11.615-10.11-2.813-19.375-3.393-3.143-7.082-5.56-11-8a1756 1756 0 0 1-5-3.437c-2.425-1.636-4.195-2.628-7-3.563l-.812 2.688c-2.05 5.715-2.05 5.715-4.188 8.312-4.912.601-7.355-.48-11.312-3.312-4.12-2.784-7.678-4.503-12.415-5.88-5.523-1.964-11.004-4.905-14.273-9.808a90 90 0 0 1-.312-7.937l-.05-2.17c-.003-4.466.653-6.469 3.362-9.893.499-4.412-.26-7.124-2.312-11-3.928-8.157-5.949-16.936-5.688-26h-10c-.625-2.375-.625-2.375-1-5 2.565-2.565 4.477-2.54 8-3-.456-9.513-.456-9.513-2.062-18.875-.936-4.359-1.259-8.677-1.376-13.125l-.12-3.875c.214-3.437 1.267-5.772 2.898-8.79 3.218-5.982 4.382-12.083 5.66-18.71 4.296-22.127 15.755-47.372 35-60.625 6.196-3.908 12.582-7.473 19-11l2.204-1.223c12.754-7.06 12.754-7.06 18.741-9.078 2.725-.927 5.38-2.011 8.055-3.074A985 985 0 0 1 203 57l3.55-1.328c22.46-7.743 50.916-10.724 73.852-3.742"/><path fill="#020202" d="M200 163q19.284-.106 38.569-.155 8.953-.022 17.907-.071 8.637-.048 17.273-.059 3.3-.008 6.6-.032c3.074-.022 6.148-.025 9.223-.024l2.772-.032 2.537.012 2.204-.008c2.532.488 3.418 1.288 4.915 3.369v4l2.493-.49c3.89-.566 7.696-.672 11.616-.678l2.324-.01q2.426-.007 4.851-.007c2.445-.002 4.889-.02 7.333-.04 8.014-.03 15.599.082 23.383 2.225l3.871.973c9.94 3.037 18.66 7.47 24.754 16.34 3.393 9.1 2.582 19.832 2.625 29.437.03 1.75.03 1.75.063 3.535.046 10.358-2.098 16.702-8.25 24.903l-1.303 1.787A369 369 0 0 1 372 253l-2.04 2.707c-6.892 8.06-17.606 13.117-27.964 14.773-16.45.811-32.285-9.373-44.233-19.854C286.677 240.466 278.59 229.44 272 216l-1.18-2.016c-1.191-2.883-1.259-5.633-1.445-8.734l-.227-3.547L269 199l-2.395.102C264 199 264 199 262.312 197.375c-1.497-2.71-2.394-5.424-3.312-8.375-1.812-1.812-4.27-1.132-6.678-1.137l-2.26.012-2.248-.012c-4.037-.08-4.037-.08-7.814 1.137l-.812 3.25C238 196 238 196 235.543 198.238c-3.104 3.371-3.592 6.36-4.418 10.7-4.763 20.242-21.423 39.17-38.754 50.106-13.824 8.187-30.279 11.56-46.09 8.155-9.765-3.383-17.305-9.826-23.281-18.199-1.159-2.506-2.184-4.917-3.125-7.5l-.784-2.147c-5.944-16.927-6.706-35.908.909-52.353 4.16-7.154 9.403-11.62 17.125-14.687l3.133-1.262c12.193-4.673 26.714-3.178 39.617-3.113q2.65.008 5.3.013 6.413.017 12.825.049z"/><path fill="#fafafa" d="M386 183h1q.758 5.093 1.5 10.188l.434 2.908.41 2.822.38 2.587c.279 2.52.324 4.962.276 7.495l1.934-.035 2.503-.028 2.497-.035C399 209 399 209 400 210c.04 1.666.043 3.334 0 5-2.405 1.203-3.95 1.1-6.625 1.063l-2.477-.028L389 216l.105 2.203c.294 10.885-1.252 19.38-7.293 28.547-5.404 8.35-4.022 13.195-2.207 22.637.714 4.723.157 8.155-2.043 12.363-3.098 2.72-5.562 3.232-9.5 4.223-4.585 1.538-8.65 3.95-12.796 6.423-2.868 1.64-4.76 2.632-8.106 2.448-2.815-1.1-3.7-2.215-5.16-4.844-.364-1.66-.7-3.327-1-5-13.544 5.58-13.544 5.58-22 17l-1.125 3.5L317 308c-2.125.875-2.125.875-4 1l1 2.023c1.24 3.69 1.123 6.72 1 10.602-.34 5.549-.34 5.549 2 10.375-.21 2.742-.911 4.795-2 7.313-3.326 2.806-6.767 1.932-11 1.687v-10h-7l-2 9-4 1c-2.402-2.402-2.256-2.97-2.266-6.246l-.007-2.537.023-2.654-.023-2.643.007-2.541.007-2.326C289 320 289 320 291 317l-2.687-.875A140 140 0 0 1 280 313l-2 2c-3.683-.108-5.631-1.468-8.437-3.625-5.024-3.384-9.819-2.346-15.586-1.574L251 310l-2-2c-2.684.222-2.684.222-6 1l-2.547.344c-2.585.388-4.978.813-7.453 1.656-1.715 2.327-1.715 2.327-2 5l-1 3c-.192 4.509-.192 4.509.5 8.938.809 3.335.557 6.64.5 10.062-3.132 1.566-6.439 1.308-9.875 1.375l-2.184.113c-3.808.063-5.524-.09-8.324-2.761L209 334c-.6-.951-.6-.951-1.21-1.922-1.057-2.781-1.222-5.365-1.415-8.328l-.227-3.266L206 318h-4l.875 2.625L204 324l1.125 3.063c.848 2.847 1.128 4.99.875 7.937l-1 1h-8l-1 1c-1.666.04-3.334.043-5 0-4.933-7.355-6.465-12.918-6.187-21.625.615-10.11.615-10.11-2.813-19.375-3.393-3.143-7.082-5.56-11-8a1756 1756 0 0 1-5-3.437c-2.425-1.636-4.195-2.628-7-3.563l-.812 2.688c-2.05 5.715-2.05 5.715-4.188 8.312-4.912.601-7.355-.48-11.312-3.312-4.12-2.784-7.678-4.503-12.415-5.88-5.523-1.964-11.004-4.905-14.273-9.808a90 90 0 0 1-.312-7.937l-.05-2.17c-.003-4.466.653-6.469 3.362-9.893.56-4.637-.428-7.39-2.625-11.437-2.853-5.85-2.853-5.85-1.687-9.75L116 229c1.682 3.045 2.727 6.182 3.8 9.483 3.841 11.403 9.636 19.486 20.575 25.142 11.1 5.067 25.053 4.927 36.695 1.477 10.128-3.808 18.88-8.804 26.93-16.102l2.332-2.086c5.136-4.847 9.057-10.067 12.824-16.031C221 228 221 228 222.656 225.867c4.326-5.628 5.88-11.546 7.345-18.397 1.38-5.892 3.564-8.391 7.999-12.47.937-2.31 1.426-4.563 2-7 3.145-1.573 6.488-1.226 9.938-1.25l2.208-.062c5.342-.04 5.342-.04 7.788 1.64 1.542 2.418 2.266 4.93 3.066 7.672l1 3h5l.086 2.176C270.622 217.843 280.619 232.249 292 244l2.508 2.629c11.665 11.397 27.72 21.917 44.305 22.996 10.17-.374 22.055-5.287 29.187-12.625 8.03-9.397 16.119-18.974 16.133-31.805l.005-3.44-.013-3.63-.001-3.683c-.03-7.434-.27-14.742-1.1-22.133L383 190l2-2c.648-2.57.648-2.57 1-5"/><path fill="#fafafa" d="M129 294c4.268.251 6.498.597 9.875 3.313 1.909 2.413 2.792 3.686 3.125 6.687l1.938-1.5c4.128-2.022 7.542-2.215 12.062-1.5 5.488 2.646 5.488 2.646 6.875 6.313.125 2.687.125 2.687 0 5.94.131 3.931.882 6.7 2.25 10.372l1.363 3.68c1.462 3.573 3.105 6.99 4.825 10.445 3.17 6.675 3.727 12.051 1.957 19.2-.348 3.937.695 5.258 2.98 8.425 3.067 4.475 5.097 8.473 6.75 13.625h3l1-2h3l-1-1c-.141-2.67-.042-5.324 0-8 1.89.203 1.89.203 4 1 1.047 2.11 1.047 2.11 1.75 4.75l.734 2.61c.512 2.62.612 4.978.516 7.64l2 1 1-4c3.375.547 5.082 1.055 8 3 2.04 4.532 2.329 8.933 2.559 13.828.253 2.556.253 2.556 3.441 4.172l-.035-3.027-.028-3.91-.035-3.903C213 388 213 388 214 387c2.863-.301 4.405-.446 6.75 1.313 2.466 3.328 2.36 6.388 2.313 10.375l-.028 3.011L223 404h2l-.035-1.898-.028-2.477-.035-2.46C225 395 225 395 226 393c4.548-.178 7.88.002 12 2l3-5c5.779.361 10.853 1.716 15 6 .78 2.798.508 5.168 0 8l-.5 3-.5 2h3l-.352-2.379c-.295-3.437-.347-6.234.352-9.621 2.846-3.261 5.97-5.419 10-7 2.328.332 2.328.332 4 1l.148 2.59.227 3.348c.07 1.102.14 2.204.21 3.34.138.898.274 1.796.415 2.722l2 1-.187-3.062c.22-4.63.874-6.95 3.187-10.938 2.563-1.062 2.563-1.062 5-1 2.762 2.762 2.579 5.207 3 9l4 1-1.094-1.723c-2.923-4.864-4.862-8.423-3.906-14.277 3.208-2.139 4.277-2.477 8-2 2.68 4.019 2.156 6.242 2 11h2l-.25-3.5c-.035-4.893 1.789-8.368 4.25-12.5h4c1.033 2.788 1.045 3.868.063 6.75L304 385h2v-2h3l1 2c1.883-1.883 1.365-5.214 1.523-7.773.567-2.646 1.346-3.6 3.477-5.227h2v10c3.915-2.61 5.524-5.64 7-10 .355-3.001.506-5.983.668-9 .421-3.807 1.661-6.792 3.21-10.266 2.214-5.398 3.598-11.109 5.122-16.734h-2c-.404-6.761.415-12.575 2.21-19.098.715-2.625 1.273-5.232 1.79-7.902.704-3.289 1.622-5.514 4-8 4.836.99 9.476 1.957 14 4l-.375-2.187C353 300 353 300 355.563 297.188c3.44-2.595 6.153-2.664 10.437-2.188 2.438.5 2.438.5 4 1 .339 5.537-.643 9.015-3 14l-.93 2.89c-1.033 3.002-2.27 5.545-3.828 8.305l-1.635 2.9-1.732 3.03-1.77 3.142c-2.973 5.227-6.029 10.14-9.668 14.92-6.193 8.905-8.985 24.021-7.437 34.813 1.107 1.978 2.326 3.627 3.754 5.383 3.11 4.036 3.798 8.674 3.246 13.617-1.61 2.22-3.081 3.967-5 5.875l-1.387 1.45a229 229 0 0 1-2.96 3.015 218 218 0 0 0-3.468 3.568c-4.932 5.113-10.236 9.27-15.998 13.404-9.26 6.795-17.196 13.848-24.562 22.688-2.514 2.874-4.108 4.576-7.625 6-5.426.224-10.159-.278-15.5-1.375-7.343-1.413-14.675-2.205-22.125-2.812l-3.088-.254c-9.253-.986-9.253-.986-18.287.441-8.334.876-14.315.147-21-5-9.431-7.885-17.593-16.753-25.312-26.312-3.534-4.361-7.206-8.556-11-12.688l-1.527-1.673c-3.61-3.895-6.888-6.994-11.849-8.952C153 395 153 395 152 394a64 64 0 0 1-.125-4.437l-.008-2.434C152 385 152 385 153 383c1.378-16.233.769-35.19-9-49-1.979-1.971-4.036-3.74-6.2-5.504-3.242-2.694-4.625-4.89-5.085-9.11q-.212-2.879-.309-5.765c-.194-2.678-.194-2.678-1.926-4.539-2.108-2.966-1.775-5.244-1.667-8.832l.082-3.547z"/><path fill="#040404" d="M159 281c5.73 1.042 10.26 4.808 15 8l2.613 1.668c4.909 3.382 7.664 6.27 9.055 12.133.524 5.045.281 10.07.135 15.135-.083 6.926 1.476 12.15 5.197 18.064 3.533.064 3.533.064 7-.5 2.38-.595 4.556-.568 7-.5a340 340 0 0 0-.375-4.312l-.21-2.426c-.31-2.534-.31-2.534-2.415-5.262-.125-2.687-.125-2.687 0-5l5-1 .043 2.563c.243 9.004.243 9.004 3.684 17.113 5.726 3.335 13.904 1.8 20.273 1.324l-.437-2.379c-2.827-15.998-2.827-15.998.906-22.89 3.01-3.402 7.227-3.93 11.531-4.731l3.5-.812L249 307l2 2c2.195-.175 4.383-.44 6.563-.75 5.306-.5 8.17-.439 12.5 2.75l1.972 1.75c1.934 1.523 1.934 1.523 4.461.938L279 313c3.868 0 5.013.274 8.25 2l2.14 1.125L291 317l-1 3a73 73 0 0 0-.098 4.45l.01 2.568.026 2.67.013 2.705q.018 3.303.049 6.607l4 1 3-9h7v10c6.03-.104 6.03-.104 11.125-2.75 1.133-2.913.712-4.252-.125-7.25-.877-4.969-1.03-9.666-.969-14.687-.034-2.537-.377-4.862-1.031-7.313l1.875-.625c2.996-1.939 3.017-3.99 4.125-7.375 3.978-8.58 10.51-12.475 19-16h3l.7 1.715.988 2.223.949 2.214c1.253 2.02 1.253 2.02 3.59 2.82 4.45.045 7.488-2.294 11.22-4.523 1.49-.865 3.02-1.662 4.553-2.449l2 1-2.937 1.688c-3.491 2.635-3.437 3.245-4.063 7.312l-4 3c-.804 2.599-.804 2.599-1 5l-1.793-.402c-4.061-.908-8.12-1.807-12.207-2.598-2.76 3.996-3.788 7.78-4.562 12.5l-.37 2.107A719 719 0 0 0 331 336h2c-.684 4.946-1.982 9.514-3.5 14.25l-.684 2.18c-1.67 5.278-1.67 5.278-2.816 7.57a274 274 0 0 0-.25 5.563c-.446 5.966-1.91 10.764-5.75 15.437l-3 1v-10c-4.113 2.413-4.113 2.413-4.504 5.191l-.058 2.372c-.067 2.378-.067 2.378-.438 4.437l-3 2v-3h-3v2h-2l1-8h-4c-2.455 5.123-3.503 9.339-4 15h-2l-2-10c-4.736-.264-4.736-.264-8 1 1.263 7.025 1.263 7.025 5 13v3l-5-1-1-7-5-1c-2.227 4.744-3.461 8.723-4 14l-3-1-1-12c-3.594.899-4.859 1.424-7.625 3.563C260.212 397 260.212 397 258 397v12h-3v-13l-4.187-2.5-2.356-1.406c-2.748-1.224-4.483-1.496-7.457-1.094-1.862 2.409-1.862 2.409-3 5l-2.062-.937c-3.308-1.197-6.453-1.653-9.938-2.063l-1 11h-2l-.113-2.23c-.265-7.496-.265-7.496-3.887-13.77h-5l-1 14-4-2c-.793-2.934-.793-2.934-1.187-6.437-.57-4.856-.57-4.856-1.813-9.563-2.954-2.37-2.954-2.37-7-2l-1 3-3-1-.375-3.562c-.513-4.006-1.23-7.64-2.625-11.438l-3-1 .5 3.813c.322 2.452.5 4.704.5 7.187l-3-2-2 4c-2.378-1.23-3.754-2.359-4.723-4.887q-.676-2.32-1.347-4.64c-1.04-2.764-2.436-4.785-4.18-7.16-2.765-3.951-2.765-3.951-2.625-7.25L173 354c.874-7.777-.92-13.293-4.375-20.187-7.056-14.543-7.056-14.543-6.375-22.5.116-2.79.116-2.79-.25-5.313-3.832-3.926-7.637-4.571-13-5v-2l6-3-1-3c-2.015-.733-2.015-.733-4-1h4l.813-2.125c1.255-3.04 2.69-5.948 4.187-8.875"/><path fill="#020202" d="m315.914 168.734 2.332-.005q2.444-.002 4.887.01c2.463.01 4.924 0 7.387-.012 8.037-.008 15.674.128 23.48 2.273l3.871.973c9.94 3.037 18.66 7.47 24.754 16.34 3.393 9.1 2.582 19.832 2.625 29.437l.063 3.535c.046 10.358-2.098 16.702-8.25 24.903l-1.303 1.787A369 369 0 0 1 372 253l-2.04 2.707c-6.892 8.06-17.606 13.117-27.964 14.773-16.45.811-32.285-9.373-44.233-19.854C286.677 240.466 278.59 229.44 272 216l-1.18-2.254c-3.179-6.766-2.934-17.29-1.172-24.34 3.006-7.501 7.954-12.628 15.352-15.844 5.14-1.825 9.46-2.126 14.813-.937L302 173l2-2c3.712-2.523 7.59-2.29 11.914-2.266"/><path fill="#060606" d="M243 204c3.093 1.092 5.37 2.264 8.063 4.188 2.681 2.025 2.681 2.025 5.187 1.75 2.096-.946 2.096-.946 3.75-3.938l4 1 .824 2.895L266 214l.647 2.26c2.693 9.346 5.38 18.54 9.373 27.428 2.747 6.48 3.006 13.394 1.98 20.312-2.571 5.27-5.853 9.853-10 14-3.248-.043-4.27-1.26-6.621-3.54a244 244 0 0 1-4.225-4.687c-2.78-3.004-2.78-3.004-6.623-3.96-4.132 1.938-7.013 5.194-10.158 8.414-1.533 1.5-1.533 1.5-4.373 3.773-2.297-.027-2.297-.027-4-1-5.332-9.821-4.032-25.769-1.766-36.453 1.149-3.82 2.8-7.336 4.532-10.922 2.814-5.985 4.417-12.155 5.761-18.605.576-2.459 1.435-4.721 2.473-7.02"/><path fill="#141414" d="m257 93-3 3c1.02 2.747 2.105 5.174 3.625 7.688C259 106 259 106 259 108h2l.375-2.75c.625-3.25.625-3.25 1.688-5.312 1.3-2.33 1.3-2.33.937-6.938h15l-5 5c-2.451 2.872-4.464 5.545-6 9h4v2l-2.375.75c-3.017 1.437-3.34 2.297-4.625 5.25l2.42-.567c16.484-3.782 31.594-6.495 48.58-4.433l-1 3-3.902.621-5.036.817-2.576.408-2.45.4-2.27.365c-1.783.227-1.783.227-2.766 1.389-2.082.135-4.166.232-6.25.313-7.363.453-13.829 2.215-20.75 4.687a538 538 0 0 0 3.188 5.25l1.792 2.953c2.794 3.868 5.478 6.283 10.02 7.797v2h-41c2.272-4.545 4.846-8.857 7.441-13.223 1.65-2.733 1.65-2.733 2.559-5.777l-18 5c-.204 6.332-.204 6.332 1 12h2v2h-16v-2l1.457-1.207c2.29-2.662 2.06-5.028 2.23-8.48l.2-3.575L226 122a4174 4174 0 0 0-8.062 2.813l-2.28.79c-3.556 1.247-7.035 2.537-10.467 4.096C202 131 202 131 198 131v-2l5-2c-.978.2-.978.2-1.977.402-4.664.943-9.322 1.856-14.023 2.598l-1-3c10.39-4.182 19.99-6.79 31.172-7.676 3.037-.257 5.865-.642 8.828-1.324.317-13.125.317-13.125-6-24 12.341-1.077 24.619-1.11 37-1"/><path fill="#f3f3f3" d="M205 168h90l1 3-3.219.996c-9.863 3.244-16.816 6.565-21.918 16.137-.96 2.068-.96 2.068-1.863 4.867l-3-1-1.437-3.437c-1.183-3.462-1.183-3.462-3.102-4.766-3.778-1.224-7.452-1.125-11.399-1.11l-2.42-.048c-4.674-.004-7.907.24-11.642 3.361-1.199 1.766-1.199 1.766-1.812 3.688L233 193l-2-1a70 70 0 0 1-1.312-4.812c-1.296-4.572-2.49-6.689-6.688-9.188l-2.238-1.43c-3.106-1.766-6.229-3.007-9.574-4.257l-3.52-1.325L205 170z"/><path fill="#151515" d="M206 163q18.111-.106 36.222-.155 8.409-.022 16.818-.071 8.111-.048 16.222-.059 3.099-.008 6.198-.032c2.887-.022 5.775-.025 8.662-.024l2.603-.032c5.805.03 5.805.03 8.018 1.646C302 166 302 166 302 170h5c-1.75 2.063-1.75 2.063-4 4-2.25-.25-2.25-.25-4-1l-1 3-1-3c-2-1.209-2-1.209-4-2h3l-1-2-90-1z"/><path fill="#f4f4f4" d="m248 310 1.465 6.055c.483 2.004.483 2.004 1.535 3.945.124 2.845.185 5.655.188 8.5l.037 2.379c.005 2.042-.103 4.083-.225 6.121-2 2-2 2-5.004 2.23l-3.559-.043-3.566-.019C236 339 236 339 235 338c-.308-3.784-.278-7.58-.312-11.375l-.088-3.234-.026-3.102-.044-2.853c.47-2.436.47-2.436 2.34-4.192 3.914-2.286 6.541-3.244 11.13-3.244"/><path fill="#f2f2f2" d="M261 310h3l1 2a78 78 0 0 0 5 2c.662 17.226.662 17.226-3 23-3.89 2.161-7.594 2.4-12 2-2.608-2.608-2.358-3.862-2.437-7.5.094-6.564 2.074-10.975 5.437-16.5l1.625-3.125z"/><path fill="#fafafa" d="M386 183h1q.758 5.093 1.5 10.188l.434 2.908.41 2.822.38 2.587c.279 2.52.324 4.962.276 7.495l1.934-.035 2.503-.028 2.497-.035C399 209 399 209 400 210c.04 1.666.043 3.334 0 5-2.405 1.203-3.95 1.1-6.625 1.063l-2.477-.028L389 216l.105 2.203c.357 13.243-2.932 22.714-10.105 33.797l-3-4c1.802-3.689 3.828-7.227 5.879-10.781 2.028-4.015 2.249-7.552 2.254-12.024l.005-3.44-.013-3.63-.001-3.683c-.03-7.434-.27-14.742-1.1-22.133L383 190l2-2c.648-2.57.648-2.57 1-5"/><path fill="#121212" d="m250 308 1 1c2.19-.226 4.377-.481 6.563-.75 6.048-.513 9.372-.07 14.18 3.621L273 313l-2 1v9h-1l-1-9-5-2v-2c-2.661 1.018-3.805 1.667-5.266 4.164l-.984 2.461-1.016 2.477L256 321l-2.375-1.5c-2.41-1.665-2.41-1.665-4.625-1.5-1.354-2.709-1.065-5.01-1-8q-2.72.964-5.437 1.938l-3.06 1.09c-2.406.74-2.406.74-3.503 1.972a96 96 0 0 0-.316 5.129l-.127 3.135-.12 3.298-.13 3.311q-.16 4.064-.307 8.127h-4c-3.34-18.164-3.34-18.164.453-25.27 3.01-3.367 7.29-3.833 11.547-4.73 2.684-1.342 4.153-.73 7 0"/><path fill="#f5f5f5" d="M282.09 315.867C284 316 284 316 286 317c.058 3.792.094 7.583.125 11.375.017 1.08.034 2.16.05 3.273l.02 3.125.032 2.889C286 340 286 340 284 342c-2.312.438-2.312.438-5 0-2.812-1.937-2.812-1.937-5-5-.544-3.05-.287-5.927 0-9l.207-2.992c.698-9.115.698-9.115 7.883-9.14"/><path fill="#f6f6f6" d="M238.86 94.578C242 95 242 95 244.265 97.047l1.984 2.703 2.016 2.672c3.871 5.755 3.871 5.755 3.359 8.828L251 113a477 477 0 0 1-5.687 1.563l-3.2.878c-3.12.56-5.09.406-8.113-.441q-.08-4.437-.125-8.875l-.05-2.55-.02-2.442-.032-2.254c.407-3.369 1.926-3.835 5.086-4.3"/><path fill="#040404" d="m249.938 181.688 2.42-.05c4.671-.003 7.91.238 11.642 3.362a118 118 0 0 1 3 7l2 1v6c-2.312.25-2.312.25-5 0-2.935-2.826-3.81-6.177-5-10-1.812-1.812-4.27-1.132-6.678-1.137l-2.26.012-2.248-.012c-4.037-.08-4.037-.08-7.814 1.137l-.812 3.313c-1.333 4.137-2.626 5.343-6.188 7.687v-5l-2-1c1.028-2.056 2.139-4.023 3.313-6l1.238-2.125c3.726-4.821 8.77-4.21 14.387-4.187"/><path fill="#f2f2f2" d="M253 121c-.579 3.944-1.777 6.685-3.875 10.063l-1.555 2.535A100 100 0 0 1 243 140l3 1-3 3c-2.5-1.312-2.5-1.312-5-3v-3h-2c-2.6-3.9-2.15-7.474-2-12l1.793-.586c5.034-1.652 5.034-1.652 9.957-3.602 2.541-.917 4.568-.965 7.25-.812"/><path fill="#121212" d="m214.125 119.75 3.133-.078c2.742.328 2.742.328 4.61 1.844L223 123l-2.816.988c-7.744 2.686-7.744 2.686-15.309 5.825C202 131 202 131 198 131v-2l5-2-1.977.402c-4.664.943-9.322 1.856-14.023 2.598l-1-3q4.092-1.475 8.188-2.937l2.33-.842c5.963-2.124 11.234-3.375 17.607-3.471"/><path fill="#0c0c0c" d="m261 122 2 3-1 3-3-3c-.845 3.985-1.617 7.942-2 12l2 2h-15a461 461 0 0 1 4.938-9.625l1.527-2.914c2.783-4.462 5.532-4.993 10.535-4.461"/><path fill="#282828" d="m243 308 1 3-8 4-1 23h-4c-3.337-18.143-3.337-18.143.445-25.266 2.992-3.338 7.29-3.953 11.555-4.734"/><path fill="#222" d="M241 182c2.896-.081 5.79-.14 8.688-.187l2.474-.077c4.751-.057 8.048.052 11.838 3.264a118 118 0 0 1 3 7l2 1v6c-2.312.25-2.312.25-5 0-2.935-2.826-3.81-6.177-5-10-1.74-1.74-4.194-1.372-6.562-1.562l-3.067-.254L247 187v-1h9v-2l-15-1z"/><path fill="#eaeaea" d="M264 93c1.19 4.152.79 6.387-.937 10.313l-1.153 2.675L261 108h-2c-1.543-2.082-1.543-2.082-3.187-4.812l-1.668-2.708C253 98 253 98 254 95l2-1-10-1v-1q2.625-.292 5.25-.562l2.953-.317c3.702-.16 6.31.716 9.797 1.879"/><path fill="#171717" d="m363 287 2 1-2.937 1.688c-3.491 2.635-3.437 3.245-4.063 7.312l-4 3c-.804 2.599-.804 2.599-1 5l-9-2c4.376-8.753 9.85-12.526 19-16"/><path fill="#0c0c0c" d="m257 93-1.5 1.25c-1.934 1.872-1.934 1.872-1.5 5.75h-2v5h-3c-1.754-1.898-1.754-1.898-3.562-4.375-1.744-2.363-3.36-4.547-5.438-6.625q2.843-.254 5.688-.5l3.199-.281A95 95 0 0 1 257 93"/><path fill="#f2f2f2" d="M259 125c3.646 1.215 4.486 2.846 6.281 6.145.993 2.561.644 4.312-.281 6.855h-8c-1.71-4.976-.009-8.426 2-13"/><path fill="#353535" d="M282.438 312.625 285 314l3.313 1.625L291 317l-1 3a80 80 0 0 0-.316 4.23l-.127 2.432-.12 2.526-.13 2.56A2136 2136 0 0 0 289 338h-3v-21h-12c1.764-3.528 4.538-5.375 8.438-4.375"/><path fill="#d3d3d3" d="M386 183h1q.758 5.093 1.5 10.188l.434 2.908.41 2.822.38 2.587c.279 2.52.324 4.962.276 7.495-2.125-3.188-2.502-5.265-3-9-1.14 3.422-1.098 6.087-1.062 9.688l.027 3.574L386 216h-1c-.392-4.29-.76-8.582-1.125-12.875l-.34-3.707-.293-3.535-.285-3.27C383 190 383 190 385 188c.648-2.57.648-2.57 1-5"/><path fill="#dadada" d="m302 375 4 2-2 9-2-2-3 1-1 8h-4v-9h1v8h2l-.25-3.5c-.026-4.87 1.716-8.42 4.25-12.5z"/><path fill="#d5d5d5" d="M390 209q2.219-.04 4.438-.062l2.496-.036C399 209 399 209 400 210c.04 1.666.043 3.334 0 5-3.43 1.715-7.217 1.054-11 1v12h-1v-13l5-1c-.776-3.075-.776-3.075-3-5"/><path fill="#dbdbdb" d="m189 368 4 1c.39 1.433.762 2.872 1.125 4.313l.633 2.425C195 378 195 378 193 381l-7-1 1-3h3l-1-1c-.141-2.67-.042-5.324 0-8"/><path fill="#e6e6e6" d="m383 235 3 2c-.688 3.656-2.254 6.519-4.062 9.75l-1.66 2.984L379 252l-3-4c1.457-2.968 3.012-5.864 4.625-8.75l1.352-2.422z"/><path fill="#dbdbdb" d="M116 229c1.754 3.391 3.287 6.849 4.75 10.375.47 1.1.938 2.202 1.422 3.336.971 3.858.41 5.702-1.172 9.289h-1q-1.07-3.206-2.125-6.418a127 127 0 0 0-1.812-5.008c-2.234-5.931-2.234-5.931-1.25-9.637z"/><path fill="#121212" d="m214 387-1 15-4-2c-.61-3.04-.61-3.04-.75-6.625l-.172-3.602L208 387c3-1 3-1 6 0"/><path fill="#f0f0f0" d="M226 393h7c-1.217 4.025-2.495 7.593-5 11h-3a585 585 0 0 1-.062-4.375l-.036-2.46C225 395 225 395 226 393"/><path fill="#212121" d="m237 184 1 4h-2v3h3c-.306 3.674-.758 4.781-3.562 7.313L233 200v-5l-2-1c1.068-2.136 2.291-4.104 3.563-6.125l1.378-2.195z"/><path fill="#191919" d="M207 317q.331 3.655.625 7.313l.195 2.091c.298 3.852.388 5.285-1.82 8.596l-.621-2.371-.816-3.067-.81-3.058c-.513-2.422-.513-2.422-1.753-3.504a100 100 0 0 1 0-5c3.875-1 3.875-1 5-1"/><path fill="#0c0c0c" d="m274.188 92.875 2.73.055L279 93c-2.578 2.648-4.916 4.944-8 7-2.687-.875-2.687-.875-5-2v-3c3.314-2.21 4.345-2.225 8.188-2.125"/><path fill="#f9f9f9" d="M317 372q.079 2.187.125 4.375l.07 2.46C317 381 317 381 315 383l-3 1c-.081-1.437-.14-2.874-.187-4.312l-.106-2.426c.293-2.262.293-2.262 1.68-4.055C315 372 315 372 317 372"/><path fill="#1d1d1d" d="m353 336 2 4-3 1c-.62 2.05-.62 2.05-.875 4.438-.46 2.464-.46 2.464-1.125 4.562-2.5 1.5-2.5 1.5-5 2l-2 1c1.486-4.217 3.612-7.625 6.125-11.312l2.195-3.239z"/><path fill="#ededed" d="M279 389c4.706.706 4.706.706 6 2 .04 1.666.043 3.334 0 5l-3 1-3-3-3 1c1.875-4.875 1.875-4.875 3-6"/><path fill="#eee" d="M385 216h1l.684 6.152c.135 1.86.135 1.86 1.316 2.848.262 4.55-.005 7.884-2 12l-2-1z"/><path fill="#151515" d="m263 191 6 2v6c-2.375.188-2.375.188-5 0-2-3-2-3-1.625-5.687z"/><path fill="#282828" d="M221 311c-.75 6.625-.75 6.625-3 10-4-6.75-4-6.75-4-9 2.49-.687 4.379-1 7-1"/><path fill="#141414" d="M287 322h1l.148 3.395.227 4.418.094 2.236c.204 3.77.395 5.748 2.531 8.951h-4l-1 3-6-1 1.875-.812c2.425-1.144 2.425-1.144 4.125-4.188.3-2.754.51-5.426.625-8.187l.117-2.272c.094-1.847.177-3.694.258-5.541"/><path fill="#242424" d="m284 174 3 1a672 672 0 0 1-3.75 3.375l-2.11 1.898c-1.997 1.611-3.81 2.68-6.14 3.727l-2 1c1.367-3.15 2.857-5.009 5.5-7.187l1.844-1.543C282 175 282 175 284 174"/><path fill="#dfdfdf" d="M293 381c-1 3-1 3-3.062 4.188L288 386v6h-2c-1.522-3.043-1.239-5.654-1-9 3.228-2.152 4.284-2.2 8-2"/><path fill="#e9e9e9" d="M252 305c9.41.964 9.41.964 14 2l-1 2c-3.16.414-3.16.414-7.062.625l-3.91.227L251 310z"/><path fill="#f9f9f9" d="m218 136 4 2v2l3 1c-1.25 1.563-1.25 1.563-3 3-2.062 0-2.062 0-4-1-1.25-2.562-1.25-2.562-2-5z"/><path fill="#262626" d="M237 398h2v13h-3a701 701 0 0 1-.062-4.812l-.036-2.708C236 401 236 401 237 398"/><path fill="#e9e9e9" d="M285 320h1c.058 3.292.094 6.583.125 9.875.017.937.034 1.874.05 2.84l.02 2.715.032 2.507C286 340 286 340 284 342c-2.625.125-2.625.125-5 0a105 105 0 0 1 4-5h2z"/><path fill="#1c1c1c" d="m347 397 3 2-2 1.875c-2.228 1.881-2.228 1.881-2 4.125l-5 3a140 140 0 0 0-5 5l-2-1 1.828-1.758C340.1 406.067 343.96 402.155 347 397"/><path fill="#eaeaea" d="M115 220h1v13l-2 1c-1.292-4.12-2.263-7.668-2-12l2 2z"/><path fill="#3b3b3b" d="m272 392 4 3c.172 2.262.172 2.262-.25 4.688l-.39 2.449L275 404l-3-1z"/><path fill="#1e1e1e" d="M283 388h2c1.29 1.645 1.29 1.645 2.625 3.813l1.352 2.144C290 396 290 396 290 399l-5-1-.437-3.312c-.446-3.62-.446-3.62-1.563-6.688"/><path fill="#121212" d="m299 379-2 13h-2c-.25-1.601-.474-3.206-.687-4.812l-.387-2.708c.074-2.48.074-2.48 1.43-4.304C297 379 297 379 299 379"/><path fill="#161616" d="m256 396 2 1v12h-3z"/><path fill="#e5e5e5" d="M199 381c3.375.547 5.082 1.055 8 3 .688 2.625.688 2.625 1 5h-2v-2l-2-1-6-3z"/><path fill="#303030" d="m266 309 7 4-2 1v9h-1l-1-9-5-2z"/><path fill="#292929" d="m250 337 1 2 2 1v2l-6 1v-2l-9-1v-1l2.371-.184 3.066-.253 3.06-.247c2.44-.048 2.44-.048 3.503-1.316"/><path fill="#eaeaea" d="m358 296 1 4-4 2 1 4-4 2 1-3-.25-2.437c.25-2.563.25-2.563 2.75-4.875z"/><path fill="#d4d4d4" d="m333 337 1 2 2 1h-2v7l-4 2c.508-4.318 1.197-8.033 3-12"/><path fill="#0a0a0a" d="M239 185c2.875-.125 2.875-.125 6 0l2 2-3.437.875L240 189l-1 2h-3v-3h2z"/><path fill="#dfdfdf" d="M252.063 265.313C254 266 254 266 255 268l-3 3c-2-1-2-1-3-3l-2 1 1-3c2-1 2-1 4.063-.687"/><path fill="#dedede" d="m276 95 2 1-1.437 1.813c-1.728 2.19-1.728 2.19-2.563 5.187h-3v2h-2c1.394-4.435 3.606-6.874 7-10"/><path fill="#131313" d="M258 266c3.161 1.37 3.993 1.99 6 5l-5 1-3-4z"/><path fill="#2d2d2d" d="m266 188-1 4h-2l-2 3-2-7c3.01-.934 3.867-1.044 7 0"/><path fill="#2e2e2e" d="M195 126c-2 3-2 3-5.125 3.688L187 130l-1-3c5.625-2.125 5.625-2.125 9-1"/><path fill="#191919" d="m356 91 2 7h-4c-2.25-2.5-2.25-2.5-4-5 4.875-2 4.875-2 6-2"/><path fill="#dcdcdc" d="m199 253 3 1c-6.286 5.429-6.286 5.429-10 7l-2-2a345 345 0 0 1 4.313-3.062l2.425-1.723z"/><path fill="#a1a1a1" d="M205 126c-2 2-2 2-4.562 2.5L198 129l-1 2v-2l-7 1c4.653-3.102 9.415-4.338 15-4"/><path fill="#e2e2e2" d="M234 185c1.208 3.623.543 4.641-1 8l-2-1c-.625-3.062-.625-3.062-1-6 2-1 2-1 4-1"/><path fill="#cfcfcf" d="M253 121c-.75 4.75-.75 4.75-3 7l-1-3 1-2h-5c3.228-2.152 4.284-2.2 8-2"/><path fill="#dcdcdc" d="m370 254 2 4h-3l-1 2-2 2-3-1 2.375-1.812c2.77-2.099 2.77-2.099 4.625-5.188"/><path fill="#dbdbdb" d="m383 235 3 2c-.573 2.867-.861 3.861-3 6l-1-2-2-1z"/><path fill="#ddd" d="M238 138h5v2l3 1-3 3c-2.5-1.312-2.5-1.312-5-3z"/><path fill="#d4d4d4" d="M279 389q2.514.428 5 1l-1.875.25c-2.31.563-2.31.563-3.375 2.813L278 395h-2c1.875-4.875 1.875-4.875 3-6"/><path fill="#eaeaea" d="M315 372h2v8l-2 1-1-4h2v-2l-4 2c1.875-3.875 1.875-3.875 3-5"/><path fill="#ccc" d="M277.848 315.902 284 316c-2.639 1.414-5.071 2.372-8 3v5h-1q-.062-3.5 0-7c1-1 1-1 2.848-1.098"/><path fill="#212121" d="M265 308v3c-2.812.688-2.812.688-6 1-1.875-1.437-1.875-1.437-3-3 3.196-1.065 5.657-1.074 9-1"/><path fill="#cfcfcf" d="M116 229c1.884 3.265 2.493 6.281 3 10l-1-3h-2l-1 2c-1.033-2.788-1.045-3.868-.062-6.75z"/><path fill="#f0f0f0" d="m246 200 4 4-2 3-5-4z"/><path fill="#dadada" d="M259 125c3 1 3 1 4.688 4.063L265 132a101 101 0 0 1-6-2l-1-2z"/><path fill="#131313" d="m309 432 2 1v5h-3l-2-3z"/><path fill="#e4e4e4" d="m289 334 2 3c2.06.724 2.06.724 4 1l-1 3c-3.875-.875-3.875-.875-5-2a100 100 0 0 1 0-5"/><path fill="#393939" d="M132 311h1c.222 2.103.427 4.207.625 6.313l.352 3.55C134 324 134 324 132 327c-.936-3.793-.983-6.937-.562-10.812l.308-2.958z"/><path fill="#313131" d="M102 216h9l-1 4z"/><path fill="#151515" d="M126 179c.934 3.01 1.044 3.867 0 7h-4c1.074-2.915 1.778-4.778 4-7"/><path fill="#282828" d="M311 376h1c.293 6.055.293 6.055 0 8l-3 2v-3l-2-1 3-1z"/><path fill="#3c3c3c" d="m315 337 2 3-3 1-1 2-9-1v-1l1.898-.113 2.477-.2 2.46-.175c2.544-.342 2.544-.342 4.165-3.512"/><path fill="#2d2d2d" d="m206 317 1 4h-2l-2 3c-1-1-1-1-1.062-3.562L202 318z"/><path fill="#c2c2c2" d="M376 255h1l1 10-5-2 2-2c.398-1.988.738-3.99 1-6"/><path fill="#d9d9d9" d="M242 187h11l-4 2-3 2z"/><path fill="#d2d2d2" d="M344 387c2.566 3.85 2.551 6.435 3 11l-.812-1.75c-1.205-2.283-2.596-4.224-4.188-6.25h2z"/><path fill="#d5d5d5" d="M179 371c1.991 2.986 2.941 5.597 4 9l-2 2v-2h-2z"/><path fill="#151515" d="M203 377c2.764 2.403 3.04 3.163 4 7l-8-3z"/><path fill="#f3f3f3" d="m233 179-3 3c-3.875-1.75-3.875-1.75-5-4 4.625-1.25 4.625-1.25 8 1"/><path fill="#eaeaea" d="m221 138 1 2 3 1-3 3-4-2z"/><path fill="#242424" d="M206 128c-3.061 2.624-3.732 3-8 3v-2c4.625-2.125 4.625-2.125 8-1"/><path fill="#161616" d="m130 97 4 1c-1.152 2.468-2.048 4.048-4 6-1.125-4.75-1.125-4.75 0-7"/><path fill="#d5d5d5" d="M306 383h3l1 4-4 3c-.934-3.01-1.044-3.867 0-7"/><path fill="#161616" d="M280 178v3c-2.262 1.548-4.552 2.776-7 4 1.453-3.83 3.429-5.12 7-7"/><path fill="#e0e0e0" d="m109 161 2 4c-1.375 1.5-1.375 1.5-3 3h-2c1.875-4.75 1.875-4.75 3-7"/><path fill="#171717" d="M234 134c3 3.875 3 3.875 3 5h-7z"/></svg>
